<svg xmlns="http://www.w3.org/2000/svg" version="1.1" xmlns:xlink="http://www.w3.org/1999/xlink" xmlns:svgjs="http://svgjs.com/svgjs" width="1440" height="560" preserveAspectRatio="none" viewBox="0 0 1440 560"><g mask="url(&quot;#SvgjsMask1004&quot;)" fill="none"><rect width="1440" height="560" x="0" y="0" fill="rgba(25, 109, 77, 1)"></rect><circle r="8.505" cx="972.445" cy="315.715" filter="url(#SvgjsFilter1005)" fill="rgba(214, 239, 199, 1)"></circle><circle r="6.22" cx="1244.55" cy="135.62" filter="url(#SvgjsFilter1005)" fill="rgba(214, 239, 199, 1)"></circle><circle r="6.685" cx="89.425" cy="543.775" filter="url(#SvgjsFilter1005)" fill="rgba(214, 239, 199, 1)"></circle><circle r="8.665" cx="24.064999999999998" cy="376.185" filter="url(#SvgjsFilter1005)" fill="rgba(214, 239, 199, 1)"></circle><circle r="5.67" cx="1369.48" cy="257.25" filter="url(#SvgjsFilter1005)" fill="rgba(214, 239, 199, 1)"></circle><circle r="6.76" cx="1315.44" cy="432.11" filter="url(#SvgjsFilter1005)" fill="rgba(214, 239, 199, 1)"></circle><circle r="7.49" cx="267.08" cy="202.65" filter="url(#SvgjsFilter1005)" fill="rgba(214, 239, 199, 1)"></circle><circle r="9.065" cx="990.8850000000001" cy="502.185" filter="url(#SvgjsFilter1005)" fill="rgba(214, 239, 199, 1)"></circle><circle r="8.355" cx="488.595" cy="305.65500000000003" filter="url(#SvgjsFilter1005)" fill="rgba(214, 239, 199, 1)"></circle><circle r="4.905" cx="13.524999999999999" cy="211.26500000000001" filter="url(#SvgjsFilter1005)" fill="rgba(214, 239, 199, 1)"></circle><circle r="6.105" cx="511.165" cy="469.945" filter="url(#SvgjsFilter1005)" fill="rgba(214, 239, 199, 1)"></circle><circle r="9.31" cx="681.0999999999999" cy="358.16" filter="url(#SvgjsFilter1005)" fill="rgba(214, 239, 199, 1)"></circle><circle r="5.355" cx="1064.415" cy="233.83499999999998" filter="url(#SvgjsFilter1005)" fill="rgba(214, 239, 199, 1)"></circle><circle r="5.64" cx="1154.5" cy="290.5" filter="url(#SvgjsFilter1005)" fill="rgba(214, 239, 199, 1)"></circle><circle r="6.45" cx="162.98999999999998" cy="305.83" filter="url(#SvgjsFilter1005)" fill="rgba(214, 239, 199, 1)"></circle><circle r="9.105" cx="581.5550000000001" cy="25.925" filter="url(#SvgjsFilter1005)" fill="rgba(214, 239, 199, 1)"></circle><circle r="7.965" cx="1109.205" cy="282.565" filter="url(#SvgjsFilter1005)" fill="rgba(214, 239, 199, 1)"></circle><circle r="6.295" cx="714.255" cy="117.505" filter="url(#SvgjsFilter1005)" fill="rgba(214, 239, 199, 1)"></circle><circle r="5.83" cx="932.2700000000001" cy="16.72" filter="url(#SvgjsFilter1005)" fill="rgba(214, 239, 199, 1)"></circle><circle r="7.545" cx="1098.4350000000002" cy="405.365" filter="url(#SvgjsFilter1005)" fill="rgba(214, 239, 199, 1)"></circle><path d="M990.3 314.9L1002.7 296.3 1009.2 308.1C1009.8 309.4 1011.7 310.2 1013.6 309.6 1015 308.4 1015.7 306.5 1014.5 305.2L1006.9 290.1 1015.9 275.1 1031.7 306.7C1032.9 308 1034.8 308.8 1036.1 308.2 1038.1 307 1038.8 305.1 1037.6 303.8L1020.1 268.9 1034.7 246.6 1045.4 275.3 1058.9 247.8 1071.2 271.5 1050.4 304.4C1049.8 304.4 1049.7 305 1049.7 305.6 1049.6 306.9 1050.2 308.2 1051.5 308.9 1052.7 309.6 1054.7 309.1 1056 307.9L1074.8 278 1082.3 293.8 1073.3 308.1C1072.6 308.7 1072.6 309.3 1072.6 310 1072.5 310.6 1073.1 311.9 1074.3 312.6 1075.6 313.3 1077.5 312.8 1078.2 311.5L1085.8 300.4 1096.4 320.1C1096.9 322.1 1098.9 322.1 1100.8 321.6 1102.1 321 1102.9 319.1 1101.7 317.2L1091.7 297.4 1105.2 298.1C1107.1 298.2 1108.5 296.3 1108.5 295.1 1108.6 293.2 1107.4 291.8 1105.5 291.7L1088.2 290.9 1080.7 275.1 1115.2 276.8C1117.1 276.9 1118.4 275.7 1118.5 273.8 1118.6 272.5 1117.4 270.5 1115.5 270.4L1077.1 268.5 1064.9 244.9 1094.7 249.5 1078 224.4 1104.9 225.7 1122.4 259.9C1123.6 261.8 1125.5 261.9 1126.8 261.4 1128.1 260.8 1128.9 258.9 1128.3 257L1111.9 226 1129.2 226.9 1137.4 242C1137.9 244 1139.8 244.7 1141.8 243.5 1143.1 242.9 1143.9 241.1 1142.7 239.1L1136.8 227.3 1159.2 228.4C1161.1 228.4 1162.5 227.2 1162.6 225.3S1161.4 222.1 1159.5 222L1137.2 220.9 1144.1 209.7C1145.5 207.8 1144.9 205.9 1143.7 205.2 1141.8 203.8 1139.9 204.3 1139.2 206.2L1129.5 220.5 1112.2 219.6 1131.6 190.5C1132.3 188.6 1131.8 186.6 1130.5 185.9 1128.7 184.6 1126.7 185.1 1126 187L1105.2 219.3 1078.3 218 1097.4 194.6 1067.2 196.3 1081.8 173.9 1120.1 175.8C1122.1 175.9 1123.4 174.1 1123.5 172.8 1123.6 170.9 1122.4 169.5 1120.5 169.4L1085.3 167.7 1095 152.8 1112.3 153.6C1114.2 153.7 1115.5 152.5 1115.6 150.6 1115.7 149.3 1114.5 147.3 1112.6 147.2L1099.2 146.6 1111 127.9C1112.3 126.1 1111.8 124.1 1109.9 123.4 1108.7 122.7 1106.7 122.6 1106 124.5L1093.6 143.1 1087.1 131.3C1086.5 130 1084.6 129.2 1083.3 129.8 1082 130.4 1081.3 131.6 1081.3 132.3 1081.2 132.9 1081.2 133.5 1081.8 134.2L1089.4 149.3 1080.3 164.2 1064.6 132.7C1063.4 131.4 1061.5 130.6 1060.2 131.2 1058.9 131.8 1058.2 133 1058.1 134.3 1058.1 135 1058.1 135 1058.7 135.6L1076.2 170.5 1061.6 192.8 1050.9 164.1 1037.4 191.6 1025.1 167.9 1045.9 135C1046.6 133.8 1046.7 131.8 1044.8 130.5 1043.6 129.8 1041.6 130.3 1040.3 131.5L1021.5 161.4 1014 145.6 1023 131.3C1024.4 130.1 1023.8 128.2 1022 126.8 1020.7 126.1 1018.8 126.6 1017.4 127.8L1010.5 139 999.9 119.3C999.3 117.3 997.4 117.2 995.5 117.8 994.8 118.4 994.1 119.6 994.1 120.3 994 120.9 994 121.6 994.6 122.2L1004.5 141.9 991.1 141.3C989.2 141.2 987.8 143 987.8 144.3L987.8 144.3C987.7 146.2 988.9 147.6 990.8 147.7L1008.1 148.5 1015.6 164.3 981.1 162.6C979.2 162.5 977.8 163.7 977.8 165.6S978.9 168.9 980.8 169L1019.1 170.9 1031.4 194.5 1001.6 189.9 1018.3 215 991.4 213.7 973.9 179.5C972.7 177.5 970.8 177.5 969.5 178 968.1 178.6 967.4 180.5 968 182.4L983.7 213.3 967.1 212.5 958.9 197.4C958.3 195.4 956.5 194.7 954.5 195.9 953.2 196.5 952.4 198.3 953 200.3L959.5 212.1 937.1 211C935.2 210.9 933.8 212.2 933.7 214.1S934.8 217.3 936.8 217.4L959.1 218.5 952.2 229.7C951.5 230.3 951.5 231 951.4 231.6 951.4 232.9 952 233.6 952.6 234.2 954.5 235.6 956.4 235.1 957.1 233.2L966.8 218.9 984.1 219.8 964.7 248.9C964.7 249.6 964.6 250.2 964.6 250.8 964.5 252.1 965.1 252.8 965.8 253.5 967.6 254.8 969.6 254.3 970.3 252.4L991.1 220.1 1017.9 221.4 998.9 244.8 1029.1 243.1 1014.5 265.5 976.1 263.6C974.2 263.5 972.9 265.3 972.8 266.6 972.7 268.5 973.9 269.9 975.8 270L1010.4 271.7 1001.3 286.6 984 285.8C982.1 285.7 980.8 286.9 980.7 288.8S981.8 292.1 983.7 292.1L997.1 292.8 985.3 311.4C984.7 312.1 984.6 312.7 984.6 313.3 984.6 314 985.1 315.3 986.4 316 987.6 316.7 989.6 316.8 990.3 314.9ZM1012.7 237.8L1028.3 218.7 1014.6 198.2 1039.4 202 1050.1 180.1 1059.2 202.9 1083.6 201.6 1068 220.7 1081.7 241.2 1057.5 237.5 1046.2 259.3 1037.7 236.5 1012.7 237.8Z" fill="rgba(214, 239, 199, 1)"></path><path d="M1084.5 508.4L1116.1 498.4 1124.3 502.4 1125.3 522.7 1117.6 527.9 1085.2 520.8C1084.8 520.8 1084.8 520.8 1084.4 520.8 1083.6 520.8 1082.8 521.3 1082.4 522.5 1082.5 523.7 1082.9 524.5 1084.2 524.8L1112.5 531 1100.5 538.8 1087.9 536.2C1087.9 536.2 1087.5 536.3 1087.5 536.3 1086.7 536.3 1086 536.7 1085.6 538 1085.3 538.8 1086.1 539.9 1087.4 540.3L1095.5 542.3 1086.5 547.9C1085.8 548.4 1085.4 549.6 1085.9 550.8S1087.9 551.9 1089.1 551.4L1097.6 545.8 1096.1 553.9C1095.7 555.1 1096.6 556.2 1097.8 556.6 1098.6 556.5 1099.8 556.1 1100.1 554.8L1102.7 542.3 1115.1 534.5 1108.9 562.8C1108.6 564 1109.4 565.2 1110.3 565.5 1111.5 565.5 1112.6 565 1113 563.8L1119.7 531.4 1127.9 526.2 1145.6 535.3 1146.1 544.9 1124.1 569.6C1123.3 570.5 1123.4 571.7 1124.2 572.4S1126.3 573.1 1127 572.3L1146.3 550.5 1147.1 565.3 1138.8 574.5C1138 575.3 1138.1 576.5 1138.9 577.7S1141 578.4 1141.7 577.6L1147.4 570.9 1147.9 581.7C1148 582.9 1149.2 583.6 1150.4 583.5 1151.6 583.5 1152.4 582.6 1152.3 581.4L1151.8 570.6 1158.1 576.3C1158.9 577.5 1160.1 577.4 1160.9 576.2 1161.6 575.3 1161.6 574.2 1160.7 573.4L1151.5 565.1 1150.7 550.3 1172.2 570C1173 570.8 1174.6 570.7 1175.4 569.8S1176.1 567.8 1175.2 567L1150.5 544.7 1150 535.1 1167 524.2 1175.3 528.6 1185.3 560.1C1185.7 561.3 1187 561.6 1188.2 561.6 1189.3 561.1 1189.7 559.9 1189.6 558.7L1180.6 531.1 1193.4 537.7 1197.2 549.9C1197.6 551.1 1198.9 551.4 1200.1 551.4 1200.8 550.9 1201.6 549.7 1201.1 548.5L1198.7 540.6 1208.2 545.3C1209 545.7 1210.2 545.2 1210.9 544.4 1211.3 543.2 1210.8 542 1210 541.7L1200.5 536.9 1208.8 534.1C1209.6 533.7 1210.3 532.4 1209.9 531.6 1209.8 530.4 1209 530.1 1207.8 530.1 1207.8 530.1 1207.4 530.2 1207.4 530.2L1195.2 534 1182.4 527.4 1210 518.4C1211.2 518 1211.9 517.1 1211.5 515.9 1211 514.8 1210.2 514.4 1209.4 514.4 1209 514.5 1209 514.5 1209 514.5L1177.1 524.9 1168.9 520.5 1167.8 500.1 1175.6 495.3 1208.4 502.1C1209.2 502.4 1210.3 501.6 1210.7 500.8 1211 499.5 1210.2 498.4 1209 498L1180.6 491.9 1192.6 484.1 1205.2 486.6C1206.4 487 1207.6 486.5 1207.5 485.3 1207.9 484.1 1207 482.9 1206.2 482.6L1197.7 481 1206.6 475.3C1207.4 474.5 1207.7 473.3 1207.2 472.1 1206.8 471.7 1206 471.4 1205.2 471.4 1204.8 471.4 1204.8 471.4 1204.4 471.8L1195.5 477.5 1197.1 469C1197.4 467.8 1196.6 467 1195.8 466.7 1195.4 466.7 1195.4 466.7 1195 466.7 1194.2 466.8 1193.4 467.2 1193 468L1190.5 480.6 1178.4 488.4 1184.6 460C1184.5 458.8 1184.1 457.7 1182.9 457.7 1182.5 457.3 1182.5 457.3 1182.1 457.4 1181.3 457.4 1180.5 458.2 1180.1 459.1L1173.4 491.8 1165.6 496.6 1147.6 487.6 1147.1 478.4 1169.5 453.6C1170.2 452.8 1170.1 451.2 1169.3 450.4S1166.9 449.7 1166.1 450.6L1146.8 472.4 1146 458 1154.4 448.4C1155.1 447.5 1155.1 446.3 1154.2 445.6 1153.4 444.8 1152.2 444.9 1151.4 445.7L1145.7 452 1145.2 441.2C1145.2 440.4 1144.3 439.3 1143.1 439.3 1141.9 439.4 1140.8 440.6 1140.8 441.4L1141.4 452.2 1135.1 446.5C1134.6 446.2 1134.2 445.8 1133.8 445.8 1133 445.8 1132.6 446.3 1132.3 446.7 1131.5 447.5 1131.6 448.7 1132.4 449.5L1141.7 458.2 1142.4 472.6 1121 452.9C1120.5 452.5 1120.1 452.5 1119.3 452.5 1118.9 452.6 1118.5 452.6 1118.2 453 1117.4 453.8 1117.5 455.4 1118.3 456.2L1142.7 478.6 1143.2 487.8 1126.5 498.6 1117.9 494.7 1107.8 462.7C1107.4 462 1106.6 461.2 1105.8 461.2 1105.4 461.3 1105.4 461.3 1105.4 461.7 1104.2 461.7 1103.4 463 1103.9 464.1L1112.9 491.7 1099.8 485.2 1095.9 473C1095.5 472.2 1094.7 471.8 1093.9 471.9 1093.9 471.9 1093.5 471.9 1093.5 471.9 1092.3 471.9 1091.5 473.2 1092 474.4L1094.8 482.6 1085.4 477.9C1085 477.5 1084.6 477.5 1084.2 477.6 1083.4 477.6 1082.6 478 1082.6 478.4 1081.9 479.7 1082.3 480.9 1083.2 481.6L1092.6 486.3 1084.7 488.7C1083.6 489.2 1082.8 490.4 1083.3 491.6 1083.7 492.4 1085 493.1 1085.7 492.7L1098 488.9 1110.7 495.4 1083.1 504.4C1081.9 504.9 1081.6 506.1 1081.7 507.3 1082.1 508.1 1083.3 508.8 1084.5 508.4ZM1129.6 520.1L1128.8 504.5 1128.7 502.1 1130.6 500.8 1143.4 492.6 1145.7 491.2 1147.8 492.3 1161.4 499.3 1163.4 500.4 1163.5 502.8 1164.3 518.3 1164.5 520.7 1162.5 522 1149.7 530.3 1147.8 531.6 1145.3 530.5 1131.8 523.6 1129.7 522.5 1129.6 520.1Z" fill="rgba(214, 239, 199, 1)"></path><path d="M827 341.7L806.8 331.9 817.6 323.9C818.9 323.1 819.3 321.2 818.5 319.3 817.1 318.1 815.1 317.7 814 319.1L800.1 328.7 784 321.8 813 301.8C814.2 300.4 814.7 298.4 813.9 297.2 812.5 295.4 810.5 295 809.3 296.4L777.3 318.6 753.1 307.3 780.1 292.6 750.9 283.1 772.6 267.6 808.2 283.6C808.2 284.3 808.9 284.2 809.5 284.1 810.8 284 812 283.3 812.5 281.9 813 280.6 812.2 278.7 810.8 277.6L778.7 263.2 793.2 253.5 808.6 260.4C809.3 261 810 261 810.6 260.9 811.2 260.8 812.4 260.1 813 258.8 813.5 257.4 812.7 255.6 811.3 255L799.2 249.1 817.3 235.9C819.1 235.1 819 233.1 818.2 231.3 817.4 230.1 815.4 229.6 813.6 231.1L795.5 243.6 794.3 230.3C794.1 228.3 792.1 227.2 790.8 227.4 788.9 227.5 787.7 228.9 787.9 230.8L789.5 248.1 775 257.7 771.8 223.3C771.6 221.4 770.2 220.3 768.3 220.4 767 220.5 765.3 222 765.4 223.9L768.9 262.1 747.2 277.6 747.7 247.4 725.1 267.4 722.6 240.7 754 218.5C755.8 217.1 755.6 215.2 754.9 213.9 754.1 212.7 752.2 212.3 750.3 213.1L722 233.7 720.4 216.5 734.2 206.2C736.1 205.4 736.6 203.4 735.1 201.6 734.4 200.4 732.4 199.9 730.6 201.4L719.7 208.8 717.7 186.5C717.5 184.6 716.1 183.4 714.2 183.6S711.1 185.2 711.3 187.1L713.3 209.4 701.3 204.1C699.2 203 697.4 203.8 696.9 205.1 695.8 207.1 696.6 209 698.6 209.5L714 217 715.6 234.2 684 219.1C682 218.7 680.2 219.5 679.7 220.8 678.6 222.9 679.4 224.7 681.4 225.2L716.2 241.3 718.7 268 692.8 252.4 698.8 282.1 674.6 270.8 671.1 232.5C670.9 230.6 668.9 229.5 667.6 229.6 665.7 229.8 664.6 231.2 664.7 233.1L667.9 268.2 651.8 260.7 650.2 243.4C650.1 241.5 648.7 240.4 646.8 240.5 645.5 240.7 643.7 242.1 643.9 244L645.1 257.4 625 248.3C623 247.2 621.1 248 620.6 250 620.1 251.3 620.3 253.3 622.3 253.7L642.4 263.4 631.6 271.5C630.4 272.3 629.9 274.2 630.7 275.4 631.4 276.7 632.8 277.2 633.4 277.1 634 277.1 634.7 277 635.3 276.3L649.2 266.7 665.2 273.6 636.2 293.6C635 295 634.6 296.9 635.3 298.2 636.1 299.4 637.4 299.9 638.7 299.8 639.3 299.7 639.3 299.7 639.9 299L671.9 276.8 696.1 288.1 669.2 302.8 698.3 312.3 676.6 327.8 641.1 311.8C639.7 311.2 637.8 311.4 636.7 313.4 636.2 314.8 637 316.6 638.4 317.8L670.6 332.2 656 341.9 640.6 334.9C639.2 333.8 637.4 334.6 636.3 336.6 635.8 338 636.6 339.8 638 341L650 346.3 632 359.5C630.1 360.3 630.3 362.2 631.1 364.1 631.8 364.7 633.1 365.2 633.8 365.1 634.4 365.1 635 365 635.6 364.3L653.7 351.7 655 365.1C655.1 367 657.2 368.1 658.4 368L658.4 368C660.4 367.8 661.5 366.5 661.3 364.5L659.8 347.3 674.3 337.6 677.4 372.1C677.6 374 679 375.1 680.9 375S684 373.4 683.8 371.5L680.3 333.2 702 317.8 701.6 348 724.2 327.9 726.6 354.7 695.2 376.9C693.4 378.3 693.6 380.2 694.4 381.4 695.1 382.7 697.1 383.1 698.9 382.3L727.3 362.4 728.8 378.9 715 389.2C713.1 390 712.7 392 714.1 393.8 714.9 395 716.9 395.4 718.7 394.6L729.5 386.6 731.6 408.9C731.8 410.8 733.2 411.9 735.1 411.8S738.1 410.2 738 408.3L735.9 386 748 391.3C748.7 391.9 749.3 391.8 749.9 391.8 751.2 391.7 751.8 391 752.4 390.3 753.5 388.2 752.7 386.4 750.7 385.9L735.2 378.3 733.6 361.1 765.2 376.2C765.9 376.2 766.5 376.1 767.1 376.1 768.4 375.9 769 375.2 769.6 374.6 770.7 372.5 769.9 370.7 767.9 370.2L733 354.1 730.6 327.4 756.4 343 750.5 313.3 774.6 324.6 778.1 362.8C778.3 364.8 780.3 365.9 781.6 365.7 783.5 365.6 784.7 364.2 784.5 362.3L781.4 327.8 797.4 334.7 799 351.9C799.2 353.8 800.6 355 802.5 354.8S805.5 353.3 805.4 351.4L804.1 338 824.3 347.1C825 347.6 825.6 347.6 826.2 347.5 826.9 347.5 828.1 346.7 828.6 345.4 829.1 344 828.9 342.1 827 341.7ZM747.5 330.3L726.4 317.4 708 333.9 708.3 308.8 685.1 301.3 706.5 289.1 701.7 265.1 722.8 277.9 741.2 261.5 740.9 285.9 764.1 294.1 742.7 305.7 747.5 330.3Z" fill="rgba(214, 239, 199, 1)"></path><path d="M420.1 208.5L413 227.3 404 217.2C403.2 216 401.2 215.7 399.4 216.7 398.4 218.2 398.1 220.2 398.9 221.3L410.4 234.9 403.8 252.3 380.7 224.6C379.1 222.9 377.1 222.6 376 224.1 374.2 225.1 373.9 227.1 375.5 228.7L401.1 259.3 395.5 275.3 357 282.1 347.2 270.8 362.3 231.1C362.2 230.4 362.1 229.8 362 229.2 361.9 228.6 361 227.4 360.3 226.9 358.1 226 356.4 226.9 356.1 228.9L342.3 265.2 330.7 251 337.2 232.3C337.8 232.2 337.7 231.5 337.6 230.9 337.4 229.6 336.5 228.5 335.1 228.1 333.8 227.7 332 228.6 330.9 230.1L325.8 245.3 311 227.8C310.2 226.6 308.2 226.3 306.4 227.3 305.4 228.8 305.1 230.8 305.9 231.9L319.9 248.3 306.6 250.7C304.7 251 303.8 253.1 304 254.4 304.4 256.3 306 257.9 307.9 257.6L324.9 254.6 336.5 268.8 301.2 275C299.3 275.4 298.3 276.8 298.6 278.7 298.9 280.6 300.4 281.7 302.3 281.3L341.4 274.4 351.9 286.2 338.3 323.1 323.8 325.6 297.5 294.5C296.5 292.8 293.9 292.6 292.8 294.1 291.1 295 291.4 296.9 292.4 298.7L316.2 327 297.9 330.2 286.3 316C285.5 314.9 282.8 314.7 281.7 315.5S280.4 319 281.3 320.8L290.4 331.5 268.3 335.4C266.4 335.8 265.5 337.9 265.8 339.8 266.1 341 267.7 342.7 269.5 342.4L291.6 338.5 286.9 352.3C286.5 353.7 286.8 355.6 288.9 356.5 290.3 356.9 292.7 355.8 293.1 354.4L299.2 337.1 317.4 333.9 304.7 368.6C304.4 370.6 304.8 372.5 306.9 373.5 308.3 373.9 310.7 372.8 311.1 371.4L325 332.6 339.5 330 364.9 359.9 359.1 374.6 320 381.5C318.1 381.9 317.1 383.4 317.4 385.2 317.8 387.1 319.4 388.8 321.2 388.5L356.5 382.2 350.5 399.5 333.5 402.6C331.6 402.9 330.6 404.4 330.9 406.3 331.2 408.1 332.7 409.2 334.6 408.9L347.8 406.5 340.4 426.7C339.9 428.1 341 430.5 342.4 430.9 344.4 431.2 346.3 430.8 346.6 428.8L354.6 407.9 364.5 419.8C366 420.9 368 421.1 369.1 420.3 370.3 419.4 370.7 418.1 370.5 416.8 370.5 416.8 370.3 416.2 369.6 415.7L357.1 400.3 363.2 383 388.5 412.3C389.5 414.1 391.5 414.4 393.1 412.8 393.7 412.1 394.2 411.3 394 410.1 393.8 409.4 393.7 408.8 393.6 408.2L365.8 376 371.2 362.1 409.6 355.3 420.4 368.3 406.9 405.8C405.9 407.9 406.9 409.7 408.9 410 410.4 411 412.2 410.1 413.1 408L425.3 374 437.5 388.1 431.4 404.7C431 406.1 431.9 407.9 433.4 408.9 435.4 409.2 437.3 408.9 437.6 406.9L442.5 394.3 455.6 409.5C456.6 411.3 458.5 411 460.2 410 460.8 409.3 461.2 407.9 461 406.7 461 406.7 460.8 406 460.7 405.4L446.8 389 462.5 386.2C463.8 386 465.5 384.4 465.1 382.5 464.8 380.6 462.7 379.7 461.4 379.9L441.9 383.4 429.6 369.3 468.1 362.5C470 362.2 470.9 360 470.6 358.2S468.8 355.2 466.9 355.6L424.6 363 414.7 351.1 428.4 314.3 444.7 311.4 471.2 343.1C472.6 344.1 474.6 344.4 476.4 343.5 476.9 342.7 477.3 341.4 477.1 340.1 477 339.5 476.9 338.8 476.2 338.3L452.3 310 470.6 306.8 482.8 320.9C483.7 322 485.7 322.3 487.5 321.4 488.5 319.9 488.8 317.9 487.9 316.7L478.2 305.5 498.3 301.9C499.6 301.7 501.1 299.5 500.9 298.2 500.6 296.3 498.4 294.7 497.1 295L476.9 298.5 482.4 285.2C482.3 284.6 482.1 284 482 283.3 481.8 282.1 481 280.9 480.2 280.4 478.2 280.1 476.4 281.1 475.4 282.6L469.4 299.9 451.1 303.1 463.8 268.4C464.7 266.3 463.8 264.5 462.4 264.1 460.3 263.1 458.5 264.1 457.4 265.6L443.5 304.4 427.1 307.3 401.7 277.4 406.9 262.8 449.1 255.4C451 255 452.1 253.5 451.7 251.7 451.4 249.8 449.9 248.7 448 249.1L409.6 255.9 416.2 238.4 435.8 235C437 234.8 438.6 232.5 438.3 230.6 437.9 228.7 435.8 227.8 434.6 228L418.8 230.8 426.3 210.7C426.2 210 426.2 210 426.1 209.4 425.8 208.1 425 207 424.2 206.5 422.2 206.2 420.5 207.1 420.1 208.5ZM419.6 308.7L422.1 312.1 420.8 315.6 409.8 345.5 408.5 349 404.7 349.7 373.8 355.1 370.1 355.8 367.6 353 347.1 328.7 344.6 325.8 345.8 321.7 356.9 292.5 358.1 288.4 361.9 287.7 392.8 282.2 396.6 281.6 399.1 285 419.6 308.7Z" fill="rgba(214, 239, 199, 1)"></path><path d="M832.1 435.9L857.9 415.1 887.3 418.5 869.7 442.3 836.8 446.9C836.8 446.9 836.5 447.1 836.5 447.1 835.7 447.4 835.3 448.5 835.3 449.3 835.4 450.6 836.6 451.4 837.7 450.9L866.4 446.8 857.9 458.3 845.2 460.3C845.2 460.3 844.9 460.4 844.9 460.4 844.1 460.8 843.7 461.8 843.7 462.7 843.8 464 845 464.8 846.1 464.3L854.7 463.1 848.4 471.6C847.8 472.3 848.1 473.9 848.7 474.5 849.6 475.4 851.1 474.8 851.6 474.1L858 465.7 859.1 474.3C859.3 475.6 860.5 476.4 861.6 475.9 862.8 475.8 863.6 474.6 863.1 473.5L861.1 460.8 869.8 449.6 874 478.4C874.1 479.6 875.3 480.4 876.4 479.9 877.7 479.8 878.4 478.6 878 477.5L873.3 444.6 890.9 420.9 902.9 448.4 890.6 479.5C890.2 480.5 890.6 481.6 891.7 482 892.7 482.4 893.8 482 894.3 480.9L905.1 453.6 910.8 466.8 906.2 478.3C905.8 479.4 906.3 480.5 907.3 480.9 908.4 481.3 909.5 480.9 909.9 479.8L913 471.9 917.5 482.2C917.6 483.5 919 483.7 920.1 483.2 921.2 482.8 921.6 481.7 921.1 480.6L917 471.1 924.9 474.2C926 474.6 927.1 474.1 927.5 473.1S927.4 470.9 926.4 470.5L914.8 465.9 909.1 452.7 936.4 463.5C937.5 464 938.6 463.5 939 462.4 939.4 461.4 938.9 460.3 937.9 459.9L906.8 447.6 895.1 420.4 924.5 423.8 944.6 449.1C945.4 450.1 946.7 449.9 947.8 449.5 948.7 448.6 948.6 447.4 948.1 446.3L930 423.6 944.3 425.3 952.1 435.4C953 436.3 954.2 436.2 955.3 435.7 956.3 434.9 956.2 433.6 955.8 432.9L950.3 426.1 960.8 427.3C961.7 427.3 963.2 426.7 963.1 425.4 963 424.2 962.5 423.1 961.2 423.2L950.7 422 957.5 416.5C958.4 415.7 958.3 414.4 958 413.7 957.3 413.1 956.3 412.7 955.5 413 955.5 413 955.1 413.2 955.1 413.2L945 421 930.8 419.3 953.5 401.2C954.4 400.4 954.3 399.1 954 398.4 953.3 397.8 952.3 397.4 951.5 397.7 951.5 397.7 951.2 397.9 951.2 397.9L925.3 418.7 895.9 415.3 913.5 391.5 946.4 386.9C947.7 386.8 948.4 385.6 948 384.4 947.8 383.2 946.6 382.4 945.5 382.9L916.8 387 925.3 375.5 938 373.5C939.3 373.4 940 372.2 939.6 371.1 939.5 369.8 938.2 369 937.1 369.5L928.5 370.7 934.9 362.2C935.4 361.5 935.2 359.9 934.5 359.3 933.8 358.8 932.9 358.7 932.2 359 931.8 359.2 931.4 359.3 931.2 359.9L924.8 368.3 923.7 359.6C923.6 358.4 922.4 357.6 921.3 358.1 921.3 358.1 920.9 358.2 920.9 358.2 920.2 358.5 919.8 359.6 919.7 360.5L921.7 373.1 913.2 384.7 909 356C908.9 354.7 907.7 353.9 906.6 354.4 906.6 354.4 906.3 354.6 906.3 354.6 905.5 354.9 905.1 355.9 905.1 356.8L909.7 389.7 892.1 413.4 880.3 386.3 892.6 355.2C893 354.2 892.5 353.1 891.5 352.7 890.4 352.2 889.3 352.7 888.9 353.8L877.9 380.8 872.2 367.5 876.8 356C877.2 354.9 876.7 353.8 875.7 353.4S873.5 353.5 873.1 354.5L870 362.4 865.9 352.9C865.4 351.8 864.3 351.3 863.2 351.8 862.1 352.3 861.7 353.3 862.2 354.4L866.3 364 858.4 360.9C857.9 360.7 857.4 360.4 856.6 360.8S855.7 361.6 855.5 362.1C855.1 363.2 855.6 364.3 856.6 364.7L868.2 369.3 873.9 382.5 846.5 371.7C846 371.5 845.5 371.3 844.8 371.6 844.4 371.7 843.8 372.4 843.6 372.9 843.2 374 843.7 375.1 844.7 375.5L875.8 387.8 887.5 415 858.1 411.6 837.3 385.7C836.7 385.1 835.6 384.7 834.9 385 834.9 385 834.5 385.2 834.5 385.2 833.6 386 833.7 387.3 834 388L852.1 410.7 837.9 409 830 398.9C829.3 398.3 828.3 397.9 827.5 398.2 827.5 398.2 827.2 398.4 827.2 398.4 826.2 399.2 826.3 400.5 826.6 401.2L832.2 408 821.7 406.8C821.3 407 820.8 406.8 820.4 407 819.7 407.3 819.1 408 819 408.9 819.2 410.1 819.6 411.2 820.9 411.1L831.4 412.2 824.6 417.8C823.7 418.6 823.8 419.9 824.1 420.6 825 421.5 826.2 421.4 827 421.1L837.1 413.3 851.3 414.9 828.6 433C827.7 433.9 827.8 435.1 828.1 435.9 829.7 436.5 831.1 436.8 832.1 435.9Z" fill="rgba(214, 239, 199, 1)"></path><path d="M1382.9 384.6L1371.8 370.9 1383.3 368.6C1384.6 368.5 1385.7 367.1 1385.8 365.4 1385.1 363.9 1383.7 362.8 1382.5 362.9L1367.1 365.7 1356.9 352.9 1388.1 347.7C1390 347.2 1391.1 345.9 1390.5 344.4 1390.5 342.6 1389.2 341.5 1387.2 342L1352.8 347.9 1343.2 336.6 1355.1 304.5 1367.9 302.1 1391.3 331C1391.8 331.2 1392.3 331.4 1392.8 331.6 1393.4 331.8 1394.6 331.6 1395.3 331.3 1397 330.1 1397 328.3 1395.6 327.2L1374.3 300.9 1390.1 298.3 1401.4 311.5C1401.2 312 1401.8 312.2 1402.3 312.4 1403.3 312.8 1404.6 312.6 1405.5 311.8 1406.4 310.9 1406.5 309.1 1405.8 307.7L1396.6 297.1 1416.3 293.7C1417.6 293.5 1418.7 292.1 1418.7 290.4 1418.1 288.9 1416.7 287.8 1415.5 288L1396.9 291.3 1401 280.3C1401.6 278.7 1400.4 277 1399.3 276.7 1397.7 276.1 1395.8 276.6 1395.2 278.1L1390 292.3 1374.1 294.8 1385 265.4C1385.6 263.8 1384.9 262.4 1383.3 261.8 1381.7 261.2 1380.3 261.9 1379.7 263.5L1367.7 296.1 1354.2 298.8 1332.3 272.3 1336.8 260.2 1371.9 254C1373.6 254.1 1374.9 252.2 1374.3 250.7 1374.3 249 1372.7 248.4 1371 248.3L1339.1 253.9 1344.7 238.6 1360.5 236.1C1361.8 236 1363.1 234.1 1363 232.8S1360.9 230.3 1359.1 230.2L1347 232.3 1353.8 213.9C1354.4 212.4 1353.2 210.7 1351.6 210.2 1350.6 209.8 1348.6 210.2 1348 211.8L1341.2 230.2 1332.9 220.6C1332 219.6 1330.4 219.1 1328.8 220.2 1327.9 221.1 1327.6 223.4 1328.5 224.3L1338.9 236.5 1333.3 251.7 1312.6 226.8C1311.3 225.7 1309.7 225.1 1308.1 226.3 1307.1 227.2 1306.9 229.5 1307.8 230.4L1331 258.1 1326.5 270.1 1292.7 276.2 1284.2 265.3 1296.2 232.7C1296.7 231.1 1296.1 229.7 1294.5 229.1 1292.9 228.5 1291 229 1290.4 230.6L1279.5 260 1269.1 247.8 1274.3 233.6C1274.9 232 1274.3 230.6 1272.7 230 1271.1 229.4 1269.7 230.1 1269.1 231.7L1265 242.7 1253.1 228.2C1252.2 227.3 1249.9 227 1249 227.9 1247.9 229.2 1247.3 230.8 1248.7 231.9L1261 247.2 1247.6 249.4C1246.2 250.1 1245.1 251.5 1245.2 252.7 1245.4 254 1246.2 254.9 1247.3 255.3 1247.3 255.3 1247.8 255.5 1248.5 255.1L1265.6 252.5 1276 264.7 1242.7 270.9C1240.9 270.8 1239.8 272.2 1240.3 274.2 1240.6 274.9 1241 275.6 1242 276 1242.5 276.2 1243.1 276.4 1243.6 276.6L1280.1 269.8 1288.3 279.9 1276.5 312 1261.9 314.4 1239.5 287.6C1238.3 286 1236.6 285.9 1235.5 287.3 1234 288 1234 289.8 1235.2 291.4L1255.5 315.6 1239.4 318.6 1229.5 306.6C1228.7 305.7 1226.9 305.7 1225.5 306.3 1224.4 307.7 1223.8 309.3 1225.2 310.4L1232.5 319.7 1215.2 322.8C1213.5 322.8 1212.9 324.4 1212.8 326.1 1213.1 326.8 1214 327.8 1215.1 328.1 1215.1 328.1 1215.6 328.3 1216.1 328.5L1234.6 325.2 1229.8 338.3C1229.4 339.4 1229.9 341.4 1231.5 341.9 1233 342.5 1234.7 341.3 1235.1 340.3L1241.1 324 1257.1 321 1245.3 353C1244.7 354.6 1245.9 356.2 1247.5 356.8S1250.5 356.7 1251.1 355.1L1264 319.9 1277.4 317.7 1299.2 344.2 1294.2 357.9 1258.6 363.9C1257.2 364.5 1256 365.9 1256 367.7 1256.3 368.4 1257.2 369.3 1258.2 369.7 1258.8 369.9 1259.3 370.1 1260 369.8L1291.9 364.2 1286.3 379.4 1270.2 382.5C1269 382.6 1267.9 384 1267.8 385.8 1268.5 387.2 1269.9 388.3 1271.1 388.2L1284 385.7 1277.8 402.6C1277.4 403.6 1278.4 405.8 1279.4 406.2 1281 406.7 1283.2 405.7 1283.5 404.7L1289.7 387.9 1297.4 397.9C1297.9 398.1 1298.4 398.2 1299 398.4 1300 398.8 1301.3 398.7 1302 398.4 1303.1 397 1303.1 395.2 1302.5 393.8L1292.1 381.6 1297.7 366.3 1318.3 391.2C1319.5 392.9 1321.3 392.9 1322.2 392.1 1323.8 390.9 1323.9 389.1 1323.2 387.7L1300 360 1305 346.4 1338.9 340.3 1347.6 350.7 1334.6 385.9C1334 387.5 1334.7 388.9 1336.3 389.5 1337.9 390.1 1339.3 389.4 1339.9 387.8L1351.7 355.8 1361.9 368.5 1355.9 384.8C1355.5 385.9 1356.5 388 1358.1 388.6 1359.7 389.2 1361.3 388 1361.7 386.9L1366.5 373.8 1378.5 388.3C1379 388.5 1379 388.5 1379.5 388.7 1380.6 389.1 1381.8 389 1382.5 388.6 1383.7 387.3 1383.7 385.5 1382.9 384.6ZM1307.3 340.1L1303.6 340.5 1301.6 337.9 1283.8 316.5 1281.8 313.9 1282.9 310.8 1292.4 285 1293.6 281.9 1296.8 281.3 1324.2 276.4 1327.4 275.8 1330 278.6 1347.2 299.8 1349.8 302.6 1348.6 305.7 1339.2 331.5 1338 334.6 1334.3 335 1307.3 340.1Z" fill="rgba(214, 239, 199, 1)"></path><path d="M555.9 510.7L528.8 493.8 526.4 482.4 535.5 488.2C536.3 489 537.5 488.5 538.4 487.7 538.7 486.9 538.5 485.4 537.6 485.1L525.2 477 522.5 465.9 533.4 469.4 540.3 482.7C540.3 482.7 540.5 483 540.5 483 541.1 483.5 542.2 483.6 543.1 483.3 543.9 482.5 544.3 481.7 543.7 480.5L538.7 471 549.6 474.5 564.7 502.5C564.7 502.5 564.7 503.1 564.7 503.1 565.2 503.7 566.4 503.7 567.2 503.5 568.4 503 568.7 501.6 567.9 500.7L554.9 476.1 568.4 480 574.2 491C574.2 491 574.2 491 574.5 491.3 575 491.9 575.9 492.2 576.7 491.9 577.6 491.1 578.2 490 577.7 488.9L573.7 481.6 583.5 484.6C584.6 485.2 585.5 484.3 585.8 483.5 586.4 482.4 585.9 481.2 584.5 480.9L575 477.7 582.2 474.3C583.1 473.5 583.7 472.4 582.8 471.5 582.3 470.4 581.5 470 580.3 470.6L569.4 476.4 556.2 472.2 581 459C581.9 458.7 582.2 457.3 581.7 456.2 581.2 455.6 580.1 455 578.9 455.5L550.9 470.6 540 467.1 549.5 462.1C550.7 461.5 550.7 460.4 550.2 459.3 549.9 458.4 548.5 458.1 547.7 458.3L534.7 465.5 523.5 462.2 532 454.3 546.7 454.9C547.8 454.9 548.7 454.1 548.7 453 549 452.1 547.9 451 546.8 450.9L536.1 450.5 544.6 442.6 576.5 444.1C577.6 444.1 578.5 443.3 578.6 442.2 578.6 441.1 577.8 440.2 576.7 440.1L548.7 438.8 558.6 429.6 571.1 430C572.2 430.1 573.1 429.3 573.1 428.1 573.2 427 572.4 426.1 571.2 426.1L563 425.5 570.4 418.7C571.2 417.9 571.3 416.7 570.5 415.9 569.7 415 568.5 414.9 567.6 415.8L560.3 422.6 560.6 414.6C560.7 413.5 559.8 412.6 558.7 412.6S556.7 413.4 556.7 414.5L556.2 426.4 546 435.9 547 408.2C547 407.1 546.2 406.2 545.1 406.1 543.9 406.1 543.1 406.9 543 408L541.9 439.7 533.4 447.6 533.8 436.9C533.8 435.7 533 434.8 531.8 434.8 530.7 434.8 529.8 435.6 529.8 436.7L529.2 451.4 521 459 518.6 448.2 526.4 435.5C526.8 434.6 526.5 433.2 525.7 432.9 524.6 432.3 523.7 432.5 522.8 433.3L517.1 442.5 514.7 431.6 531.6 404.5C532.2 403.4 531.9 402.5 531.1 401.7 530 401.1 528.8 401.6 528.2 402.1L513.2 425.9 510.3 412.2 516.6 402C517.5 401.2 517 400 516.2 399.1 515.3 398.8 513.9 399 513.3 400.2L509.1 406.8 506.6 397.1C506.7 395.9 505.6 395.3 504.1 395.6 503.3 395.8 502.7 396.9 502.9 397.8L505.1 407.8 498.2 403.3C497.1 402.7 495.9 403.2 495.6 404 494.7 404.8 495 405.7 495.5 406.3 495.8 406.6 495.8 406.6 496.1 406.9L506.3 413.2 509.2 426.9 485.7 412.2C484.9 411.3 483.7 411.8 482.9 412.6 482.5 413.5 482.8 414.3 483.3 414.9 483.6 415.2 483.6 415.2 483.6 415.2L510.7 432.6 513.1 443.5 504 437.7C502.9 437.1 502 437.4 501.2 438.2 500.8 439 500.8 440.2 501.3 440.8 501.6 441 501.6 441 501.9 441.3L514.6 449.2 517 460 506.4 456.8 499.2 443.8C498.7 442.6 497.3 442.3 496.5 442.6 495.6 443.4 495 444.5 495.8 445.4L500.8 454.9 489.9 451.9 474.8 423.4C474.6 422.5 473.2 422.2 472.3 422.4 471.4 423.2 470.8 424.3 471.3 425.5L484.3 450 471.1 445.9 465.6 435.2C465.1 434 463.7 433.7 462.8 434.5 461.9 434.8 461.3 435.9 461.9 437L465.8 444.2 456 441.3C455.2 441 454 441.5 453.4 442.7 453.4 443.2 453.7 444.1 454.2 444.7 454.2 444.7 454.5 445 454.8 445.3L464.6 448.2 457.3 452.1C456.5 452.4 456.1 453.8 456.4 454.7 456.7 454.9 456.7 454.9 456.7 454.9 457.5 455.8 458.6 455.9 459.2 455.3L469.9 449.8 483.3 453.7 458.5 466.9C457.6 467.7 457.3 468.6 457.8 469.7 457.8 469.7 458.1 470 458.1 470 458.6 470.6 459.5 470.9 460.6 470.4L488.9 455.6 499.5 458.8 490 463.8C489.1 464.6 488.5 465.8 489.3 466.6 489.1 466.9 489.3 467.2 489.3 467.2 489.9 467.8 491 467.8 491.9 467.6L504.9 460.4 515.8 463.9 507.6 471.6 492.9 471C491.7 471 490.6 472.1 490.5 473.2 490.8 474 491.6 474.9 492.4 475.2L503.5 475.4 495 483.3 463.3 482.1C462.2 482 461.3 482.9 461.2 484 461.2 485.1 462 486 463.2 486L490.9 487.1 480.6 496.6 468.7 496.2C467.6 496.1 466.7 496.9 466.7 498.1S467.4 500.1 468.6 500.1L476.5 500.4 469.2 507.2C468.3 508 468.2 509.2 469.1 510 469.9 510.9 471 511 471.9 510.1L479.2 503.3 479.2 511.5C479.2 512.1 479.1 512.7 479.4 513 479.7 513.3 480.5 513.6 481.1 513.6 482.2 513.6 483.1 512.8 483.1 511.7L483.3 499.5 493.6 490 492.8 518C492.8 518.6 492.8 519.1 493.1 519.4 493.3 519.7 494.2 520 494.7 520 495.9 520.1 496.7 519.3 496.8 518.1L497.7 486.2 506.2 478.3 505.5 489.3C505.5 489.9 506 490.5 506.3 490.7 506.6 491 506.8 491.3 507.4 491.4 508.5 491.4 509.7 490.3 509.4 489.5L510.3 474.5 518.5 466.9 521.2 478 513.1 490.4C512.8 491.3 512.7 492.4 513.3 493 513.5 493.3 513.5 493.3 513.8 493 514.7 493.9 516.1 493.7 516.7 492.6L522.4 483.4 525.1 494.6 507.7 521.7C507.4 522.5 507.6 523.3 508.2 523.9 508.4 524.2 508.4 524.2 508.4 524.2 509.5 524.8 510.7 524.9 511.3 523.8L526.3 500 529.2 513.7 522.9 523.9C522.3 525 522.5 525.9 523.1 526.5 523.1 526.5 523.3 526.8 523.3 526.8 524.5 527.4 525.6 526.8 526.2 526.3L530.4 519.1 532.6 529.1C532.9 529.4 533.1 529.7 533.4 530 533.7 530.3 534.5 530.6 535.1 530.6 536.2 530.1 537.1 529.3 536.6 528.1L534.4 518.1 541.3 522.6C542.4 523.2 543.6 522.7 544.2 522.2 544.8 521 544.3 519.9 543.4 519L533.2 512.7 530 499.3 553.5 514C554.6 514.6 556.1 514.4 556.4 513.5 557 512.4 557 511.3 555.9 510.7Z" fill="rgba(214, 239, 199, 1)"></path><path d="M1440 456.9L1419.3 471.9 1410.1 470.2 1417.1 465.2C1418 464.9 1418 463.9 1417.6 463 1417.1 462.5 1416 462.2 1415.5 462.7L1405.7 469.5 1396.7 468.1 1402.6 461.1 1414.5 460C1414.5 460 1414.8 459.9 1414.8 459.9 1415.4 459.7 1415.7 458.9 1415.8 458.2 1415.5 457.3 1415 456.8 1413.9 456.8L1405.4 457.7 1411.3 450.6 1436.6 447.9C1436.6 447.9 1437 448.1 1437 448.1 1437.6 447.9 1438 447.1 1438 446.4 1438 445.4 1437.1 444.7 1436.2 445L1414.1 447.2 1421 438.4 1430.9 437.4C1430.9 437.4 1430.9 437.4 1431.2 437.3 1431.8 437.1 1432.3 436.6 1432.4 435.8 1432 435 1431.4 434.2 1430.4 434.2L1423.8 435 1429 428.6C1429.7 428 1429.4 427.1 1428.9 426.6 1428.2 425.8 1427.2 425.8 1426.6 426.8L1421.3 432.8 1421 426.5C1420.6 425.6 1420 424.8 1419.1 425.1 1418.1 425.2 1417.6 425.7 1417.6 426.7L1418.6 436.6 1411.6 445.1 1409.3 422.7C1409.4 422 1408.4 421.3 1407.4 421.3 1406.8 421.5 1406 422.2 1406.1 423.2L1408.8 448.5 1402.9 455.5 1402 446.9C1402 445.9 1401.2 445.6 1400.1 445.6 1399.4 445.5 1398.8 446.5 1398.7 447.2L1400.1 459 1394.3 466.3 1391 457.6 1395.8 446.9C1396.2 446.1 1395.9 445.2 1395 444.8 1394.5 444.3 1393.3 444.8 1392.9 445.6L1389.4 453.4 1386.1 444.7 1396.9 421.5C1397.3 420.7 1396.9 419.8 1396.1 419.4 1395.3 419.1 1394.4 419.4 1394 420.2L1384.6 440.5 1380.7 430.4 1384.8 421.3C1385.2 420.5 1384.9 419.6 1384 419.2 1383.2 418.8 1382.3 419.2 1381.9 420L1379 425.9 1376.2 418.4C1375.9 417.5 1375 417.1 1374.1 417.4 1373.2 417.8 1372.9 418.6 1373.2 419.5L1376 427 1370.3 424.4C1369.4 424 1368.5 424.3 1368.2 425.2S1368.1 426.9 1368.9 427.3L1377.6 431.2 1381.6 441.7 1361.4 432.5C1360.5 432.1 1359.6 432.5 1359.3 433.3 1358.9 434.1 1359.2 435 1360 435.4L1383.1 445.9 1386.4 454.5 1378.6 451C1377.8 450.6 1376.9 451 1376.5 451.8 1376.1 452.6 1376.4 453.5 1377.3 453.9L1388 458.7 1391.1 467.1 1382.4 465.6 1375.3 456C1374.8 455.5 1373.7 455.2 1373.2 455.8 1372.4 456.4 1372.3 457.1 1372.7 458L1377.7 465 1368.9 463.5 1354 442.8C1353.3 442 1352.6 442 1351.7 442.3 1350.9 442.9 1351 444 1351.2 444.6L1364.3 462.9 1353.2 460.9 1347.6 453.1C1347.2 452.2 1346.2 452.2 1345.3 452.6 1344.8 453.1 1344.6 454.2 1345.2 455L1348.9 460.1 1340.9 459C1340.1 458.7 1339.3 459.3 1339 460.4 1339 461.1 1339.6 461.9 1340.3 462L1348.4 463.4 1342.9 467.2C1342.2 467.8 1342.2 468.8 1342.7 469.3 1343.1 470.2 1343.8 470.3 1344.4 470 1344.7 469.9 1344.7 469.9 1345 469.8L1352.8 464.1 1363.8 466.1 1345.7 479.1C1344.8 479.4 1344.9 480.4 1345.2 481.3 1345.7 481.8 1346.5 481.9 1347.1 481.7 1347.4 481.6 1347.4 481.6 1347.4 481.6L1368.5 466.8 1377.2 468.3 1370.2 473.3C1369.4 473.9 1369.4 474.6 1369.7 475.5 1370.2 476 1371.1 476.4 1371.7 476.2 1372 476.1 1372 476.1 1372.3 475.9L1381.9 468.9 1390.7 470.4 1385.1 477.3 1373.3 478.6C1372.3 478.7 1371.6 479.6 1371.5 480.3 1371.8 481.2 1372.5 482 1373.4 481.7L1382 480.8 1376.5 488 1350.7 490.6C1350 490.5 1349.4 491.4 1349.3 492.1 1349.6 493 1350.3 493.8 1351.3 493.8L1373.4 491.6 1366.3 500.1 1356.7 501C1355.7 501 1355 501.9 1355.4 502.8 1355.3 503.5 1355.9 504.3 1356.9 504.3L1363.5 503.5 1358.4 509.9C1357.9 510.4 1357.9 511.4 1358.6 512.2 1359 512.4 1359.7 512.5 1360.3 512.3 1360.3 512.3 1360.6 512.1 1360.9 512L1366 505.7 1366.8 512.2C1366.7 512.9 1367.6 513.6 1368.3 513.7 1368.6 513.6 1368.6 513.6 1368.6 513.6 1369.5 513.2 1369.9 512.4 1369.7 511.8L1368.8 502.2 1375.8 493.4 1378 515.8C1378.4 516.7 1378.9 517.2 1379.9 517.2 1379.9 517.2 1380.2 517.1 1380.2 517.1 1380.8 516.8 1381.3 516.3 1381.3 515.3L1378.9 489.9 1384.5 483 1385.3 491.5C1385.6 492.4 1386.3 493.2 1387.2 492.9 1387.3 493.2 1387.6 493.1 1387.6 493.1 1388.2 492.9 1388.6 492 1388.6 491.3L1387.3 479.5 1393.2 472.5 1396.3 480.9 1391.5 491.6C1391.1 492.4 1391.6 493.6 1392.4 494 1393.1 494.1 1394 493.7 1394.5 493.2L1397.9 485.1 1401.2 493.8 1390.7 516.9C1390.4 517.7 1390.7 518.6 1391.5 519 1392.4 519.3 1393.3 519 1393.6 518.2L1402.8 498 1406.7 508.4 1402.8 517.1C1402.4 517.9 1402.8 518.8 1403.6 519.2S1405.3 519.2 1405.7 518.4L1408.3 512.6 1411.1 520.1C1411.5 521 1412.3 521.4 1413.2 521 1414.1 520.7 1414.5 519.9 1414.1 519L1411.3 511.5 1417.4 514C1417.8 514.2 1418.2 514.4 1418.5 514.3 1418.8 514.1 1419.3 513.6 1419.5 513.2 1419.8 512.4 1419.5 511.5 1418.7 511.1L1409.7 507.3 1405.8 496.8 1426.3 505.9C1426.7 506 1427.1 506.2 1427.4 506.1 1427.7 506 1428.2 505.5 1428.4 505.1 1428.7 504.2 1428.4 503.3 1427.6 503L1404.2 492.6 1400.9 484 1408.9 487.8C1409.3 488 1409.9 487.8 1410.2 487.6 1410.5 487.5 1410.8 487.4 1411 487 1411.3 486.2 1410.9 485 1410.2 484.9L1399.3 479.8 1396.2 471.4 1405.2 472.7 1412 482.5C1412.5 483 1413.3 483.4 1413.9 483.1 1414.2 483 1414.2 483 1414.1 482.7 1415 482.4 1415.3 481.3 1414.7 480.5L1409.6 473.5 1418.7 474.9 1433.5 496C1434 496.4 1434.7 496.5 1435.3 496.3 1435.6 496.2 1435.6 496.2 1435.6 496.2 1436.4 495.5 1436.8 494.7 1436.1 493.9L1423.1 475.6 1434.1 477.6 1439.8 485.4C1440.4 486.2 1441.1 486.2 1441.7 486 1441.7 486 1442 485.9 1442 485.9 1442.8 485.3 1442.8 484.3 1442.5 483.7L1438.5 478.3 1446.5 479.8C1446.8 479.6 1447.1 479.5 1447.4 479.4 1447.7 479.3 1448.2 478.8 1448.4 478.4 1448.4 477.4 1448 476.5 1447 476.5L1439 475.1 1444.4 471.3C1445.2 470.7 1445.1 469.7 1444.9 469.1 1444.3 468.3 1443.2 468.3 1442.4 468.7L1434.6 474.3 1423.7 472.6 1441.7 459.7C1442.5 459.1 1442.7 457.9 1442.2 457.4 1441.6 456.7 1440.8 456.3 1440 456.9Z" fill="rgba(214, 239, 199, 1)"></path><path d="M165 520L193.7 503.3 222.2 511.1 201.2 532 168.1 531.6C168.1 531.6 167.7 531.7 167.7 531.7 166.9 531.9 166.3 532.9 166.1 533.8 166.1 535 167.1 536 168.3 535.7L197.3 535.9 187.2 546 174.4 546.1C174.4 546.1 174 546.2 174 546.2 173.2 546.4 172.6 547.4 172.4 548.2 172.4 549.5 173.4 550.5 174.6 550.2L183.3 550.3 175.8 557.7C175.1 558.3 175.1 559.9 175.7 560.6 176.4 561.7 177.9 561.3 178.6 560.7L186.2 553.3 186 562C185.9 563.3 187 564.3 188.2 563.9 189.4 564 190.4 563 190.1 561.8L190 549 200.3 539.2 200.1 568.3C200 569.5 201.1 570.5 202.2 570.2 203.5 570.3 204.4 569.2 204.1 568L204.5 534.8 225.5 514 233.1 543 216.3 571.8C215.7 572.8 216 574 217 574.5 218 575.1 219.2 574.8 219.7 573.8L234.5 548.4 238.2 562.3 231.9 573.1C231.4 574.1 231.7 575.2 232.7 575.8 233.6 576.4 234.8 576.1 235.4 575.1L239.6 567.7 242.5 578.6C242.4 579.8 243.8 580.3 244.9 580 246.1 579.7 246.7 578.7 246.4 577.6L243.7 567.5 251 571.8C252 572.3 253.2 572 253.8 571.1S254 568.9 253 568.3L242.3 562.1 238.6 548.2 264 563C265 563.5 266.2 563.2 266.7 562.3 267.3 561.3 267 560.1 266 559.5L237.2 542.7 229.6 514.1 258.2 521.9 274.2 549.9C274.9 551 276.2 551.1 277.4 550.8 278.4 550.1 278.5 548.8 278.2 547.6L263.7 522.5 277.5 526.3 283.8 537.5C284.5 538.5 285.7 538.6 286.9 538.3 288 537.6 288 536.4 287.8 535.6L283.4 528.1 293.6 530.8C294.5 530.9 296 530.5 296.1 529.3 296.2 528 295.9 526.8 294.6 526.8L284.4 524.1 291.9 519.6C293 518.9 293 517.7 292.8 516.9 292.2 516.2 291.3 515.7 290.5 515.9 290.5 515.9 290.1 516 290.1 516L278.9 522.2 265.1 518.4 290.2 503.9C291.3 503.2 291.4 502 291.2 501.2 290.6 500.5 289.6 500 288.8 500.2 288.8 500.2 288.4 500.3 288.4 500.3L259.7 516.9 231.2 509.2 252.2 488.3 285.4 488.7C286.6 488.7 287.6 487.7 287.3 486.5 287.4 485.2 286.3 484.3 285.1 484.6L256.1 484.4 266.3 474.3 279.1 474.2C280.3 474.3 281.3 473.2 281 472 281.1 470.8 280 469.8 278.8 470.1L270.1 469.9 277.7 462.6C278.3 462 278.3 460.3 277.7 459.7 277.1 459 276.3 458.8 275.5 459 275.1 459.1 274.7 459.2 274.4 459.7L266.9 467.1 267 458.3C267.1 457.1 266 456.1 264.9 456.4 264.9 456.4 264.5 456.5 264.5 456.5 263.7 456.7 263.1 457.7 263 458.6L263 471.4 252.9 481.5 253.1 452.5C253.2 451.2 252.1 450.3 250.9 450.6 250.9 450.6 250.5 450.7 250.5 450.7 249.8 450.9 249.2 451.9 249 452.7L248.7 485.9 227.7 506.8 220.1 478.2 236.9 449.3C237.5 448.3 237.2 447.2 236.2 446.6 235.2 446 234.1 446.3 233.5 447.3L218.6 472.4 214.9 458.4 221.2 447.7C221.8 446.7 221.5 445.5 220.5 445S218.3 444.7 217.8 445.7L213.5 453 210.9 443C210.5 441.8 209.6 441.2 208.4 441.5 207.3 441.8 206.7 442.8 207 444L209.6 454 202.3 449.8C201.8 449.5 201.3 449.2 200.6 449.4S199.5 450.1 199.2 450.6C198.6 451.6 199 452.7 199.9 453.3L210.7 459.6 214.4 473.5 188.9 458.7C188.4 458.4 188 458.1 187.2 458.3 186.8 458.4 186.1 459 185.8 459.5 185.3 460.5 185.6 461.6 186.6 462.2L215.4 479 222.9 507.6 194.4 499.8 177.7 471.1C177.2 470.5 176.2 469.9 175.4 470.1 175.4 470.1 175 470.2 175 470.2 174 470.9 173.9 472.2 174.1 472.9L188.6 498.1 174.8 494.3 168.5 483.1C167.9 482.4 166.9 481.9 166.2 482.1 166.2 482.1 165.8 482.2 165.8 482.2 164.7 482.9 164.6 484.1 164.8 484.9L169.3 492.4 159.1 489.7C158.7 489.8 158.2 489.5 157.8 489.6 157 489.8 156.4 490.4 156.2 491.3 156.1 492.6 156.4 493.7 157.7 493.8L167.9 496.5 160.4 501C159.3 501.6 159.2 502.9 159.4 503.7 160.1 504.7 161.4 504.8 162.2 504.6L173.3 498.4 187.2 502.2 162 516.7C161 517.3 160.9 518.6 161.1 519.4 162.6 520.2 163.9 520.7 165 520Z" fill="rgba(214, 239, 199, 1)"></path><path d="M45.5 163.1L70.8 159.6 78.1 165.4 69.6 166.6C68.6 166.4 68.2 167.4 68 168.3 68.3 169 69.1 169.7 69.8 169.5L81.6 168.2 89 173.7 80.4 177.1 69.4 172.4C69.4 172.4 69.1 172.3 69.1 172.3 68.5 172.2 67.8 172.8 67.4 173.4 67.2 174.3 67.5 175 68.4 175.5L76.3 178.8 67.8 182.2 44.2 172.6C44.2 172.6 44 172.2 44 172.2 43.3 172.1 42.6 172.7 42.2 173.3 41.8 174.2 42.3 175.2 43.2 175.3L63.7 183.9 53.4 188.3 44.3 184.5C44.3 184.5 44.3 184.5 44 184.5 43.3 184.4 42.6 184.6 42.2 185.2 42.1 186.2 42.3 187.2 43.2 187.6L49.3 190 41.8 193.2C40.8 193.4 40.7 194.4 40.9 195.1 41.1 196.1 42 196.5 43.1 196L50.6 193.1 47.9 198.9C47.7 199.8 47.9 200.8 48.9 201 49.8 201.4 50.5 201.2 50.9 200.3L54.7 191.1 64.9 186.9 56.4 207.8C56 208.3 56.5 209.4 57.4 209.8 58 209.9 59 209.7 59.4 208.8L69 185.2 77.6 181.8 74.2 189.8C73.8 190.7 74.3 191.4 75.3 191.9 75.8 192.3 76.9 191.8 77.3 191.2L81.7 180.1 90.2 176.4 89 185.6 79.7 192.8C78.9 193.3 78.8 194.3 79.4 195 79.6 195.7 80.9 195.8 81.6 195.3L88.4 190.1 87.2 199.3 66.7 214.6C66 215.2 65.9 216.1 66.5 216.8 67 217.6 68 217.7 68.7 217.1L86.6 203.7 85.2 214.5 77.3 220.5C76.5 221.1 76.4 222 77 222.8 77.5 223.5 78.5 223.6 79.2 223L84.5 219.2 83.5 227.2C83.4 228.1 83.9 228.8 84.9 229 85.8 229.1 86.5 228.5 86.7 227.6L87.7 219.7 91.6 224.7C92.1 225.4 93.1 225.5 93.8 225S94.6 223.5 94.1 222.8L88.3 215.2 89.8 204.1 103.3 221.7C103.8 222.4 104.8 222.6 105.5 222 106.2 221.5 106.3 220.5 105.8 219.8L90.4 199.7 91.6 190.5 96.8 197.3C97.4 198 98.3 198.1 99 197.6 99.7 197 99.9 196.1 99.3 195.4L92.2 186 93.3 177.2 100.4 182.6 102 194.4C102.3 195.1 103.1 195.9 103.8 195.6 104.8 195.5 105.2 194.9 105.3 193.9L104.2 185.4 111.2 190.8 114.6 216.1C114.8 217.1 115.4 217.5 116.4 217.6 117.4 217.5 117.8 216.5 117.9 215.9L115.1 193.6 123.8 200.6 125.1 210.1C125 211 125.9 211.5 126.9 211.6 127.5 211.4 128.3 210.5 128.1 209.5L127.3 203.3 133.8 208C134.3 208.7 135.3 208.5 136.1 207.7 136.5 207.1 136.3 206.1 135.7 205.7L129.3 200.6 135.8 199.9C136.8 199.7 137.3 198.8 137 198.1 137.2 197.2 136.6 196.8 135.9 196.7 135.6 196.6 135.6 196.6 135.3 196.6L125.8 197.9 117 190.9 139 188C140 188.2 140.4 187.3 140.5 186.3 140.3 185.6 139.7 185.2 139.1 185.2 138.8 185.1 138.8 185.1 138.8 185.1L113.2 188.2 106.2 182.7 114.7 181.6C115.7 181.4 116.1 180.8 116.2 179.9 116 179.2 115.4 178.5 114.8 178.4 114.5 178.3 114.5 178.3 114.2 178.3L102.3 180 95.3 174.5 103.5 171.1 114.6 175.4C115.5 175.9 116.5 175.4 116.9 174.8 117 173.8 116.8 172.8 115.9 172.7L107.9 169.4 116.2 165.7 140 175.6C140.6 176 141.7 175.5 142.1 174.9 142.2 173.9 142 172.9 141.1 172.5L120.6 164 130.8 159.8 139.7 163.6C140.6 164 141.6 163.5 141.8 162.6 142.2 162 142 161 141.1 160.6L134.9 158.1 142.4 154.9C143.1 154.7 143.6 153.8 143.4 152.8 143.1 152.4 142.5 152 141.9 151.9 141.9 151.9 141.6 151.9 141.2 151.9L133.7 155.1 136.1 148.9C136.5 148.3 136 147.3 135.4 146.9 135.1 146.9 135.1 146.9 135.1 146.9 134.2 146.7 133.5 147.3 133.4 147.9L129.6 156.8 119.3 161.2 127.9 140.4C128 139.5 127.8 138.8 126.9 138.3 126.9 138.3 126.6 138.3 126.6 138.3 125.9 138.2 125.3 138.4 124.8 139.4L114.9 162.9 106.7 166.3 110 158.4C110.2 157.4 110 156.4 109 156.3 109.1 156 108.7 156 108.7 156 108.1 155.9 107.4 156.4 107 157L102.6 168.1 94.1 171.4 95.3 162.6 104.6 155.4C105.3 154.9 105.5 153.6 105 152.9 104.4 152.5 103.4 152.3 102.7 152.6L95.9 158.1 97.1 148.9 117.2 133.5C117.9 133 118 132 117.5 131.3 116.9 130.6 116 130.4 115.3 131L97.7 144.5 99.1 133.4 106.7 127.6C107.4 127 107.5 126.1 107 125.4S105.5 124.5 104.8 125.1L99.7 128.9 100.8 121C100.9 120.1 100.4 119.3 99.4 119.2 98.5 119.1 97.7 119.6 97.6 120.6L96.6 128.5 92.4 123.4C92.1 123.1 91.8 122.7 91.5 122.7 91.2 122.6 90.5 122.9 90.2 123.1 89.5 123.7 89.3 124.6 89.9 125.4L96 133 94.5 144.1 80.7 126.4C80.4 126.1 80.2 125.7 79.8 125.6 79.5 125.6 78.8 125.8 78.5 126.1 77.8 126.7 77.6 127.6 78.2 128.3L93.9 148.5 92.7 157.7 87.5 150.6C87.2 150.2 86.6 150.1 86.3 150.1 86 150 85.6 150 85.3 150.3 84.6 150.8 84.4 152.1 85 152.5L92.1 162.1 90.9 171 83.6 165.5 82.2 153.7C82 153.1 81.5 152.3 80.8 152.3 80.5 152.2 80.5 152.2 80.5 152.5 79.5 152.4 78.8 153.3 78.9 154.3L80.1 162.8 72.7 157.3 69.7 131.7C69.4 131 68.8 130.6 68.2 130.6 67.9 130.5 67.9 130.5 67.9 130.5 66.9 130.7 66.2 131.3 66.4 132.3L69.2 154.6 60.5 147.6 59.1 138.1C58.9 137.1 58.4 136.7 57.7 136.6 57.7 136.6 57.4 136.6 57.4 136.6 56.4 136.7 56 137.7 55.9 138.3L56.9 144.9 50.5 139.8C50.2 139.8 49.9 139.8 49.6 139.7 49.2 139.7 48.6 139.9 48.2 140.2 47.8 141.1 47.6 142 48.5 142.5L55 147.5 48.4 148.3C47.4 148.5 47 149.4 46.9 150 47.1 151 48 151.5 49 151.6L58.5 150.3 67.3 156.9 45.3 159.8C44.3 160 43.5 160.9 43.8 161.5 44 162.5 44.5 163.3 45.5 163.1Z" fill="rgba(214, 239, 199, 1)"></path></g><defs><mask id="SvgjsMask1004"><rect width="1440" height="560" fill="#ffffff"></rect></mask><filter id="SvgjsFilter1005"><feGaussianBlur stdDeviation="1"></feGaussianBlur></filter></defs></svg>