<svg xmlns="http://www.w3.org/2000/svg" version="1.1" xmlns:xlink="http://www.w3.org/1999/xlink" xmlns:svgjs="http://svgjs.com/svgjs" width="1440" height="560" preserveAspectRatio="none" viewBox="0 0 1440 560"><g mask="url(&quot;#SvgjsMask1008&quot;)" fill="none"><rect width="1440" height="560" x="0" y="0" fill="rgba(25, 109, 77, 1)"></rect><circle r="4.735" cx="1006.5550000000001" cy="265.005" filter="url(#SvgjsFilter1009)" fill="rgba(243, 236, 236, 0.9882352941176471)"></circle><circle r="6.855" cx="690.465" cy="197.165" filter="url(#SvgjsFilter1009)" fill="rgba(243, 236, 236, 0.9882352941176471)"></circle><circle r="7.415" cx="975.9449999999999" cy="336.58500000000004" filter="url(#SvgjsFilter1009)" fill="rgba(243, 236, 236, 0.9882352941176471)"></circle><circle r="7.785" cx="197.965" cy="210.225" filter="url(#SvgjsFilter1009)" fill="rgba(243, 236, 236, 0.9882352941176471)"></circle><circle r="7.58" cx="260.62" cy="304.74" filter="url(#SvgjsFilter1009)" fill="rgba(243, 236, 236, 0.9882352941176471)"></circle><circle r="6.495" cx="27.125" cy="190.745" filter="url(#SvgjsFilter1009)" fill="rgba(243, 236, 236, 0.9882352941176471)"></circle><circle r="6.885" cx="471.385" cy="319.22499999999997" filter="url(#SvgjsFilter1009)" fill="rgba(243, 236, 236, 0.9882352941176471)"></circle><circle r="4.895" cx="327.075" cy="247.645" filter="url(#SvgjsFilter1009)" fill="rgba(243, 236, 236, 0.9882352941176471)"></circle><circle r="5.86" cx="899.11" cy="143.63000000000002" filter="url(#SvgjsFilter1009)" fill="rgba(243, 236, 236, 0.9882352941176471)"></circle><circle r="9.265" cx="159.625" cy="480.28499999999997" filter="url(#SvgjsFilter1009)" fill="rgba(243, 236, 236, 0.9882352941176471)"></circle><circle r="9.245" cx="320.195" cy="236.205" filter="url(#SvgjsFilter1009)" fill="rgba(243, 236, 236, 0.9882352941176471)"></circle><circle r="8.14" cx="850.85" cy="72.77" filter="url(#SvgjsFilter1009)" fill="rgba(243, 236, 236, 0.9882352941176471)"></circle><circle r="6.915" cx="755.165" cy="107.47500000000001" filter="url(#SvgjsFilter1009)" fill="rgba(243, 236, 236, 0.9882352941176471)"></circle><circle r="7.405" cx="1305.485" cy="300.765" filter="url(#SvgjsFilter1009)" fill="rgba(243, 236, 236, 0.9882352941176471)"></circle><circle r="6.885" cx="891.455" cy="247.285" filter="url(#SvgjsFilter1009)" fill="rgba(243, 236, 236, 0.9882352941176471)"></circle><circle r="8.07" cx="1112.8899999999999" cy="487.52" filter="url(#SvgjsFilter1009)" fill="rgba(243, 236, 236, 0.9882352941176471)"></circle><circle r="6.77" cx="995.49" cy="76.00999999999999" filter="url(#SvgjsFilter1009)" fill="rgba(243, 236, 236, 0.9882352941176471)"></circle><circle r="8.55" cx="1145.5" cy="126.05" filter="url(#SvgjsFilter1009)" fill="rgba(243, 236, 236, 0.9882352941176471)"></circle><circle r="6.01" cx="1278.35" cy="470.74" filter="url(#SvgjsFilter1009)" fill="rgba(243, 236, 236, 0.9882352941176471)"></circle><circle r="7.37" cx="1155.55" cy="550.29" filter="url(#SvgjsFilter1009)" fill="rgba(243, 236, 236, 0.9882352941176471)"></circle><path d="M733.2 163.1L705.6 206.1 687.3 209.7 696.6 195.2C698.1 193.9 697.3 192.1 696 190.6 694.6 190.1 692.4 190.5 691.8 191.8L678.6 211.5 660.7 215.6 666.6 198.2 688 187.5C688 187.5 688.4 187.1 688.4 187.1 689.4 186.2 689.5 184.4 689.1 183 687.8 181.6 686.5 181.1 684.6 181.9L669.3 189.7 675.1 172.4 720.3 148.8C720.3 148.8 721.2 148.9 721.2 148.9 722.1 148 722.2 146.2 721.9 144.8 721 143 718.8 142.4 717.4 143.7L677.8 163.9 684.4 142.5 702 133.4C702 133.4 702 133.4 702.5 133 703.5 132.1 704 130.8 703.6 129.4 702.3 128 700.6 127 698.7 127.8L687.1 134 691.9 118.4C692.9 116.6 691.6 115.2 690.3 114.7 688.5 113.7 686.7 114.5 686.1 116.7L680.8 131.9 675.5 120.3C674.2 118.8 672.5 117.9 671 119.1 669.2 120 668.7 121.3 669.5 123.1L678.6 140.8 671.6 161.8 651 121.7C650.6 120.4 648.4 119.8 646.5 120.6 645.5 121.5 644.6 123.2 645.4 125.1L668.9 170.2 663 187.6 655.2 172.3C654.4 170.4 652.6 170.3 650.7 171.1 649.4 171.5 648.8 173.7 649.2 175.1L660.3 196.1 654.9 213.9 642.5 200.2 643.7 176.7C643.8 174.9 642.5 173.4 640.7 173.3 639.3 172.8 637.4 174.5 637.3 176.3L636.5 193.5 624 179.7 627.1 128.7C627.2 126.9 625.9 125.5 624.1 125.4 622.2 125.3 620.8 126.6 620.7 128.4L618 173.1 603.4 157 604.4 137.1C604.5 135.3 603.2 133.8 601.4 133.7 599.6 133.6 598.2 134.9 598.1 136.7L597 149.8 586.3 138C585 136.5 583.2 136.4 581.7 137.7 580.3 139 580.2 140.8 581.5 142.2L592.2 154.1 579.6 153.5C577.8 153.4 576.4 154.7 576.3 156.5S577.5 159.7 579.3 159.8L598.2 160.8 613.3 177.4 569 175.1C567.2 175.1 565.7 176.3 565.6 178.1 565.6 180 566.8 181.4 568.7 181.5L619.3 184 631.7 197.8 614.5 196.9C612.7 196.8 611.3 198.1 611.2 199.9 611.1 201.7 612.4 203.2 614.2 203.3L637.7 204.5 649.7 217.7 632.3 221.4 612.1 208.6C610.8 208.1 608.5 208.4 608 209.7 607 211.5 607.4 212.9 608.7 214.3L623.2 223.7 605.8 227.3 562.7 199.7C561 198.8 559.6 199.1 558.2 200.4 557.2 202.2 558 204 558.8 205L596.6 229.6 574.6 233.9 558.4 223.5C557.1 222.1 555.2 222.9 553.8 224.2 553.3 225.6 553.6 227.8 555.4 228.8L565.9 235.7 550.3 239.4C548.5 239.4 547.5 241.1 547.8 243.4 548.2 244.8 550 245.8 551.4 245.4L567.4 242.1 560 253.1C559 254.8 559.9 256.7 561.2 257.2 562.5 258.6 563.9 258.3 564.8 257.4 565.3 257 565.3 257 565.8 256.5L576.1 240.3 598.1 236 574 273.3C572.5 274.6 573.4 276.4 574.6 277.8 576 278.4 577.4 278 578.3 277.1 578.8 276.7 578.8 276.7 578.8 276.7L607.2 233.7 624.6 230.1 615.3 244.6C614.3 246.3 614.7 247.7 616 249.1 617.3 249.6 619.1 249.7 620.1 248.9 620.5 248.4 620.5 248.4 621 248L633.8 227.8 651.2 224.2 645.8 241.1 624.9 252.3C623 253.1 622.5 255.3 622.8 256.7 624.1 258.1 625.9 259.1 627.3 257.8L642.7 250 637.7 267.4 591.7 290.9C590.3 291.3 589.7 293.6 590.1 294.9 591.4 296.4 593.1 297.4 595 296.5L634.5 276.3 627.6 297.3 610.4 305.9C608.5 306.7 608 309 609.2 310.4 609.6 311.8 611.4 312.8 613.2 312L624.9 305.8 620 321.4C619.5 322.7 620.3 324.6 622.1 325.6 623 325.6 624.4 325.2 625.3 324.4 625.3 324.4 625.8 323.9 626.3 323.5L631.1 307.9 637.3 319.5C637.7 320.9 639.9 321.5 641.3 321.1 641.8 320.7 641.8 320.7 641.8 320.7 643.2 319.4 643.3 317.6 642.5 316.6L633.8 299.4 640.3 278 661 318C662.3 319.4 663.6 320 665.4 319.1 665.4 319.1 665.9 318.7 665.9 318.7 666.9 317.9 667.4 316.5 666.6 314.7L643.5 269.1 648.9 252.1 656.7 267.5C658 268.9 659.8 269.9 661.2 268.6 661.6 269.1 662.1 268.7 662.1 268.7 663.1 267.8 663.2 266 662.8 264.6L651.6 243.7 657.5 226.3 669.5 239.6 668.3 263.1C668.2 264.9 669.9 266.8 671.7 266.9 673.1 266.5 674.5 265.2 675 263.9L675.5 246.2 687.9 260 685.4 310.6C685.3 312.4 686.6 313.9 688.4 314 690.2 314 691.6 312.8 691.7 311L693.9 266.7 708.9 283.3 708 302.3C707.9 304.1 709.2 305.5 711 305.6S714.2 304.4 714.3 302.6L715 289.9 725.7 301.8C727 303.2 728.8 303.3 730.2 302 731.6 300.7 731.7 298.9 730.4 297.5L719.7 285.6 732.8 285.9C733.7 285.9 734.6 285.9 735.1 285.5 735.6 285.1 736.1 283.8 736.2 282.8 736.2 281 735 279.6 733.2 279.5L713.7 279 698.7 262.4 743.4 264.2C744.4 264.2 745.3 264.3 745.7 263.8 746.2 263.4 746.7 262.1 746.8 261.2 746.9 259.4 745.6 257.9 743.8 257.9L692.7 255.7 680.2 242 697.8 243.3C698.7 243.3 699.7 242.5 700.2 242.1 700.6 241.6 701.1 241.2 701.2 240.3 701.2 238.5 699.5 236.6 698.2 237L674.2 235.3 662.2 222 680.1 217.9 699.8 231.2C701.1 231.7 702.9 231.8 703.9 230.9 704.4 230.5 704.4 230.5 703.9 230 705.4 228.7 705 226.4 703.3 225.4L688.8 216.1 706.7 212 749.6 240.5C751 241 752.3 240.6 753.3 239.8 753.8 239.3 753.8 239.3 753.8 239.3 754.8 237.6 754.9 235.8 753.1 234.8L715.4 210.2 737.3 205.9 753.6 216.2C755.3 217.2 756.7 216.8 757.7 216 757.7 216 758.1 215.5 758.1 215.5 759.1 213.8 758.3 211.9 757.5 211L746 204.1 762.1 200.8C762.5 200.4 763 199.9 763.5 199.5 764 199.1 764.5 197.7 764.5 196.8 763.7 195 762.4 193.6 760.6 194.4L744.6 197.6 751.9 186.7C752.9 184.9 752.1 183.1 751.2 182.1 749.5 181.1 747.6 181.9 746.2 183.2L735.9 199.5 714.3 204.3 738.4 167C739.4 165.2 739.1 162.9 737.7 162.4 736 161.4 734.2 161.3 733.2 163.1Z" fill="rgba(243, 236, 236, 0.9882352941176471)"></path><path d="M1283 234.8L1232.4 242 1217.8 230.5 1234.8 228.1C1236.7 228.4 1237.6 226.5 1237.8 224.6 1237.4 223.3 1235.6 221.8 1234.3 222.2L1210.7 225.1 1195.9 214.3 1212.9 207.3 1235 216.5C1235 216.5 1235.6 216.6 1235.6 216.6 1236.9 216.8 1238.3 215.7 1239.1 214.5 1239.3 212.6 1238.9 211.2 1237 210.3L1221.1 203.8 1238.1 196.9 1285.4 215.7C1285.4 215.7 1285.9 216.4 1285.9 216.4 1287.2 216.6 1288.6 215.5 1289.4 214.3 1290.3 212.5 1289.3 210.4 1287.4 210.1L1246.2 193.4 1266.7 184.4 1285.1 191.8C1285.1 191.8 1285.1 191.8 1285.8 191.9 1287 192.1 1288.4 191.6 1289.2 190.4 1289.4 188.5 1289 186.5 1287.2 185.6L1274.9 180.9 1289.9 174.3C1291.9 173.9 1292.1 172 1291.6 170.7 1291.2 168.7 1289.4 167.8 1287.3 168.9L1272.4 174.8 1277.7 163.2C1278 161.3 1277.6 159.3 1275.7 159 1273.8 158.2 1272.5 158.6 1271.6 160.5L1264.2 178.9 1243.8 187.3 1260.6 145.5C1261.4 144.4 1260.3 142.3 1258.5 141.4 1257.2 141.3 1255.2 141.7 1254.4 143.5L1235.6 190.8 1218.6 197.7 1225.1 181.8C1226 179.9 1224.9 178.5 1223 177.6 1221.8 176.8 1219.8 177.9 1219 179.1L1210.4 201.2 1193.4 208.8 1195.7 190.4 1214.2 175.9C1215.7 174.8 1215.9 172.9 1214.8 171.5 1214.3 170.1 1211.8 169.8 1210.3 170.9L1196.8 181.5 1199.1 163.1 1239.7 132C1241.1 130.9 1241.3 129 1240.2 127.5 1239.1 126.1 1237.2 125.9 1235.8 127L1200.2 154.2 1202.8 132.6 1218.6 120.3C1220 119.2 1220.2 117.3 1219.1 115.9 1218 114.5 1216.1 114.2 1214.7 115.3L1204 123 1206 107.2C1206.2 105.3 1205.1 103.8 1203.2 103.6 1201.3 103.4 1199.9 104.5 1199.7 106.4L1197.7 122.2 1189.9 112.3C1188.8 110.8 1186.9 110.6 1185.5 111.7S1183.8 114.7 1184.9 116.1L1196.6 131.1 1193.8 153.4 1166.6 118.4C1165.4 117 1163.5 116.7 1162.1 117.8 1160.7 118.9 1160.5 120.8 1161.6 122.3L1192.7 162.3 1190.4 180.7 1179.8 167.1C1178.7 165.7 1176.8 165.4 1175.4 166.6 1174 167.7 1173.7 169.6 1174.9 171L1189.3 189.6 1187.1 207.4 1173 196.6 1169.5 172.9C1169 171.6 1167.2 170.1 1165.9 170.5 1163.9 170.9 1163.1 172.1 1162.9 174L1165.3 191.1 1151.1 180.3 1143.9 129.7C1143.5 127.8 1142.3 127 1140.4 126.7 1138.4 127.1 1137.5 129 1137.4 130.2L1143.4 174.8 1125.8 161 1123 142C1123.2 140.1 1121.4 139.2 1119.5 139 1118.2 139.4 1116.6 141.2 1117 143.2L1118.7 155.6 1105.7 146.3C1104.6 144.9 1102.6 145.2 1101.1 147 1100.3 148.2 1100.7 150.2 1101.9 151L1114.8 161 1101.7 162.6C1099.7 163 1098.9 164.8 1099.4 166.1 1099.1 168 1100.3 168.8 1101.6 169 1102.2 169.1 1102.2 169.1 1102.8 169.1L1121.9 166.4 1139.5 180.2 1095.6 186.3C1093.7 186.1 1092.8 187.9 1092.5 189.8 1093 191.1 1094.2 191.9 1095.5 192.1 1096.1 192.2 1096.1 192.2 1096.1 192.2L1147.2 185.6 1161.4 196.4 1144.3 198.8C1142.3 199.2 1141.5 200.4 1141.3 202.3 1141.8 203.7 1142.9 205.1 1144.2 205.2 1144.8 205.3 1144.8 205.3 1145.4 205.4L1169.1 201.9 1183.2 212.7 1166.9 219.7 1144.7 211.1C1142.9 210.2 1140.8 211.3 1140 212.5 1139.8 214.4 1140.2 216.4 1142.1 216.6L1158.1 223.1 1141.6 230.7 1093.7 211.2C1092.6 210.4 1090.5 211.5 1089.7 212.7 1089.5 214.6 1089.9 216.5 1091.7 217.4L1132.8 234.1 1112.4 242.6 1094.6 235.2C1092.8 234.3 1090.7 235.4 1090.5 237.3 1089.7 238.5 1090.1 240.4 1091.9 241.3L1104.2 246.1 1089.2 252.6C1087.9 253.1 1087 254.9 1087.4 256.9 1088 257.6 1089.2 258.4 1090.4 258.5 1090.4 258.5 1091.1 258.6 1091.7 258.7L1106.7 252.2 1102 264.5C1101.2 265.7 1102.2 267.7 1103.4 268.5 1104 268.6 1104 268.6 1104 268.6 1105.9 268.8 1107.4 267.7 1107.5 266.5L1114.9 248.7 1135.4 239.6 1118.6 281.4C1118.3 283.3 1118.8 284.6 1120.6 285.5 1120.6 285.5 1121.3 285.6 1121.3 285.6 1122.5 285.7 1123.9 285.3 1124.7 283.4L1144.2 236.2 1160.5 229.2 1154 245.2C1153.8 247.1 1154.2 249 1156.1 249.3 1156 249.9 1156.6 250 1156.6 250 1157.9 250.2 1159.3 249 1160.1 247.9L1168.7 225.7 1185.7 218.8 1183.5 236.6 1164.9 251C1163.5 252.1 1163.2 254.7 1164.3 256.1 1165.5 256.9 1167.4 257.1 1168.7 256.7L1182.4 245.5 1180.1 263.9 1140.1 295C1138.6 296.1 1138.4 298 1139.5 299.5 1140.6 300.9 1142.5 301.1 1144 300L1179 272.8 1176.2 295 1161.2 306.7C1159.8 307.8 1159.5 309.7 1160.6 311.1S1163.7 312.8 1165.1 311.7L1175.1 303.9 1173.1 319.8C1172.9 321.7 1174 323.1 1175.9 323.3 1177.8 323.6 1179.2 322.5 1179.5 320.6L1181.4 304.7 1189.9 314.8C1190.4 315.5 1191 316.2 1191.6 316.3 1192.2 316.3 1193.6 315.9 1194.3 315.3 1195.7 314.2 1196 312.3 1194.9 310.9L1182.5 295.8 1185.3 273.6 1213.2 308.6C1213.8 309.3 1214.3 310.1 1214.9 310.1 1215.6 310.2 1216.9 309.7 1217.6 309.2 1219.1 308.1 1219.3 306.2 1218.2 304.7L1186.4 264.7 1188.7 246.2 1199.2 260.5C1199.8 261.2 1201 261.3 1201.7 261.4 1202.3 261.5 1202.9 261.6 1203.6 261 1205.1 259.9 1205.4 257.4 1204.2 256.6L1189.8 237.4 1192 219.6 1206.8 230.4 1209.7 254C1210.1 255.4 1211.3 256.8 1212.5 257 1213.2 257 1213.2 257 1213.2 256.4 1215.1 256.6 1216.7 254.9 1216.3 252.9L1213.9 235.8 1228.6 246.7 1235.2 297.8C1235.7 299.2 1236.8 300 1238.1 300.1 1238.8 300.2 1238.8 300.2 1238.8 300.2 1240.7 299.8 1242.2 298.7 1241.8 296.7L1235.7 252.1 1253.3 265.9 1256.1 284.9C1256.5 286.9 1257.7 287.7 1259 287.9 1259 287.9 1259.6 288 1259.6 288 1261.6 287.6 1262.5 285.7 1262.6 284.5L1260.4 271.3 1273.4 281.3C1274 281.4 1274.6 281.4 1275.3 281.5 1275.9 281.6 1277.2 281.1 1278 280.6 1278.8 278.7 1279.1 276.8 1277.2 276L1264.3 266 1277.4 264.4C1279.4 264 1280.2 262.1 1280.4 260.9 1280 258.9 1278.2 258 1276.3 257.8L1257.2 260.6 1239.5 247.4 1283.5 241.3C1285.5 240.9 1287 239.1 1286.5 237.8 1286.1 235.8 1285 234.4 1283 234.8Z" fill="rgba(243, 236, 236, 0.9882352941176471)"></path><path d="M1044.3 428.6L1036.1 444.2 1029.4 434.4C1028.8 433.4 1027.1 432.9 1025.5 433.5 1024.4 434.7 1023.9 436.4 1024.6 437.5L1033.1 450.5 1025.5 465 1008.3 438.4C1007.1 436.8 1005.4 436.3 1004.4 437.5 1002.7 438.2 1002.3 439.9 1003.5 441.5L1022.5 470.7 1015.9 484 981.8 485.9 974.5 475.1 991.7 442.1C991.7 441.6 991.7 441 991.6 440.5 991.6 439.9 991 438.8 990.4 438.3 988.6 437.3 987 437.9 986.5 439.6L970.8 469.7 962.2 456.1 969.8 440.5C970.3 440.5 970.3 440 970.3 439.4 970.2 438.3 969.6 437.2 968.4 436.7 967.3 436.2 965.6 436.8 964.6 438L958.5 450.7 947.5 433.9C946.9 432.8 945.2 432.4 943.5 433 942.5 434.2 942 435.9 942.6 437L953 452.7 941.3 453.3C939.6 453.4 938.6 455.2 938.7 456.3 938.8 458 940 459.6 941.6 459.5L956.7 458.7 965.3 472.2 934 473.9C932.3 474 931.3 475.2 931.4 476.9 931.5 478.6 932.7 479.6 934.3 479.5L969 477.6 976.9 488.9 961.2 519.5 948.4 520.2 928.8 490.5C928.1 488.8 925.9 488.4 924.8 489.6 923.1 490.2 923.2 491.9 923.9 493.6L941.7 520.6 925.4 521.5 916.8 508C916.2 506.9 913.9 506.4 912.9 507.1S911.3 510 912 511.6L918.7 521.9 899.2 523C897.5 523.1 896.5 524.8 896.5 526.5 896.6 527.6 897.8 529.2 899.5 529.1L919.1 528 913.5 539.6C913 540.7 913.1 542.4 914.9 543.4 916 543.9 918.2 543.2 918.7 542.1L925.8 527.7 942 526.8 927.3 555.6C926.9 557.3 926.9 559 928.7 560 929.8 560.5 932 559.8 932.5 558.7L948.7 526.4 961.6 525.7 980.5 554.4 973.9 566.5 939.2 568.4C937.6 568.5 936.5 569.7 936.6 571.4 936.7 573.1 937.9 574.7 939.6 574.6L970.9 572.8 963.8 587.3 948.7 588.1C947.1 588.2 946 589.4 946.1 591 946.2 592.7 947.4 593.8 949 593.7L960.8 593 952.2 609.8C951.7 610.9 952.4 613.1 953.5 613.6 955.2 614.1 956.9 614 957.4 612.3L966.5 595 973.9 606.3C975 607.4 976.8 607.9 977.8 607.2 978.9 606.6 979.4 605.5 979.4 604.3 979.4 604.3 979.3 603.8 978.7 603.3L969.5 588.6 976.6 574.2 995.5 602.3C996.2 604 997.9 604.4 999.5 603.2 1000 602.6 1000.5 602.1 1000.5 600.9 1000.5 600.4 1000.4 599.8 1000.4 599.3L979.6 568.4 985.7 556.9 1019.8 555 1027.8 567.5 1012.1 598.6C1011.1 600.3 1011.8 602 1013.5 602.5 1014.7 603.5 1016.3 602.9 1017.3 601.1L1031.5 572.9 1040.6 586.4 1033.5 600.2C1033 601.4 1033.7 603 1034.9 604.1 1036.6 604.6 1038.3 604.5 1038.7 602.8L1044.3 592.3 1054.1 606.9C1054.8 608.6 1056.4 608.5 1058.1 607.9 1058.6 607.3 1059.1 606.1 1059 605 1059 605 1059 604.4 1059 603.9L1048.6 588.2 1062.6 587.4C1063.7 587.4 1065.3 586.1 1065.2 584.5 1065.1 582.8 1063.4 581.8 1062.2 581.8L1044.9 582.8 1035.8 569.3 1069.9 567.4C1071.5 567.3 1072.6 565.5 1072.5 563.9S1071.2 561.1 1069.5 561.2L1032.1 563.3 1024.7 551.9 1040.4 521.3 1054.9 520.5 1074.6 550.9C1075.7 551.9 1077.4 552.4 1079.1 551.7 1079.6 551.1 1080.1 550 1080.1 548.9 1080 548.3 1080 547.8 1079.4 547.2L1061.6 520.2 1077.9 519.3 1087 532.8C1087.6 533.9 1089.4 534.3 1091 533.7 1092.1 532.5 1092.5 530.8 1091.9 529.7L1084.6 518.9 1102.5 517.9C1103.6 517.8 1105.2 516.1 1105.1 515 1105 513.3 1103.2 511.7 1102.1 511.8L1084.2 512.7 1090.4 501.8C1090.3 501.2 1090.3 500.6 1090.3 500.1 1090.2 499 1089.6 497.9 1089 497.3 1087.3 496.9 1085.6 497.5 1084.6 498.7L1077.5 513.1 1061.3 514 1076 485.2C1077 483.4 1076.4 481.8 1075.2 481.3 1073.5 480.2 1071.8 480.9 1070.8 482.1L1054.6 514.4 1040.1 515.2 1021.1 486.5 1027.2 474.4 1064.6 472.3C1066.3 472.2 1067.3 471.1 1067.3 469.4 1067.2 467.7 1066 466.6 1064.3 466.7L1030.2 468.6 1037.8 454.2 1055.1 453.2C1056.3 453.2 1057.9 451.4 1057.8 449.7 1057.7 448 1055.9 447 1054.8 447.1L1040.8 447.8 1049.4 431.1C1049.4 430.5 1049.4 430.5 1049.4 430 1049.3 428.9 1048.7 427.8 1048.1 427.2 1046.4 426.8 1044.8 427.4 1044.3 428.6ZM1033.4 515.6L1035.2 518.8 1033.7 521.7 1021 546.5 1019.5 549.4 1016.2 549.6 988.8 551.1 985.4 551.3 983.6 548.6 968.3 525.3 966.4 522.6 967.9 519.2 980.6 494.9 982.1 491.5 985.5 491.3 1012.9 489.8 1016.2 489.6 1018.1 492.8 1033.4 515.6Z" fill="rgba(243, 236, 236, 0.9882352941176471)"></path><path d="M280.9 468.6L327 442.6 341.2 446.1 349.5 477.7 339.1 488.4 286 487.8C285.4 487.9 285.4 487.9 284.8 488.1 283.5 488.4 282.4 489.4 282.3 491.4 282.8 493.2 283.7 494.3 285.8 494.4L332.2 494.8 315.9 511 295.4 511.1C295.4 511.1 294.8 511.2 294.8 511.2 293.6 511.6 292.5 512.5 292.4 514.5 292.1 515.9 293.8 517.5 295.8 517.6L309.2 518.1 297.1 529.8C296 530.8 295.9 532.8 297 534.5S300.5 535.5 302.2 534.4L313.7 522.8 313.9 536C313.8 538 315.5 539.6 317.5 539.7 318.8 539.4 320.4 538.3 320.6 536.2L320.5 515.7 337.4 499.4 337 545.8C336.9 547.8 338.6 549.4 340 549.7 341.8 549.2 343.5 548.1 343.7 546L343.7 493.1 354.7 482.3 385.4 490.7 389.3 505.6 363 551.6C362.1 553.1 362.6 555 364.1 555.9S367.5 556.3 368.5 554.8L391.6 514.3 397.6 537.2 387.5 554.4C386.6 555.9 387.1 557.8 388.8 559.3S392.3 559.7 393.2 558.2L399.9 545.8 404.3 562.5C404.7 564.4 406.9 565.2 408.8 564.7 410.6 564.2 411.6 562.6 411.1 560.8L406.7 544 418.4 550.9C420.1 552.4 422 551.9 422.7 549.7 423.6 548.2 423.2 546.3 421.6 545.4L404.4 535.4 398.4 512.5 438.4 536.4C440 537.3 442.4 536.6 443.4 535.1S443.8 531.6 442.2 530.7L396.1 503.8 392.2 489 415.4 466.3 429.7 470.5 455.7 516.6C456.8 518.3 458.8 518.4 460.7 517.9 462.4 516.8 462.5 514.8 462 512.9L438.9 472.7 461 478.8 471 496.7C472.1 498.4 474.1 498.5 476 498 477 497.1 477.8 494.9 476.7 493.2L470.3 481.6 486.7 485.9C488.1 486.2 489.8 485.1 490.7 483.6 490.8 481.6 489.7 479.9 488.3 479.6L472 475.3 484 468.1C485.1 467.2 485.8 465 484.9 463.9 484.4 462.1 483 461.8 481.1 462.3 481.1 462.3 480.5 462.4 480.5 462.4L462.6 472.4 440.5 466.3 480.7 443.2C482.4 442.1 483.3 440.5 482.2 438.8 481.1 437.1 479.7 436.8 478.5 437.1 477.9 437.3 477.9 437.3 477.9 437.3L431.3 464.1 417 459.9 408.7 428.4 419.3 418.3 472.8 418.1C474.2 418.4 475.8 416.7 476.1 415.3 476.2 413.3 474.5 411.7 472.4 411.6L426 411.2 442.3 395.1 462.8 395C464.8 395.1 466.5 394 466 392.1 466.1 390.1 464.4 388.6 463 388.3L449.2 388.6 461.3 376.8C462.2 375.3 462.4 373.2 461.2 371.5 460.5 371.1 459.1 370.8 457.8 371.1 457.2 371.3 457.2 371.3 456.7 372.1L444.6 383.8 444.3 370C444.4 368 442.9 367.1 441.5 366.8 440.9 367 440.9 367 440.2 367.1 439 367.5 437.9 368.4 437.6 369.8L437.7 390.3 421.5 406.5 421.8 360.1C421.3 358.2 420.2 356.5 418.4 357 417.6 356.5 417.6 356.5 417 356.7 415.7 357 414.8 358.6 414.5 360L414.7 413.6 404.1 423.6 372.8 415.3 369.1 401.1 396 354.9C396.9 353.4 396.3 350.9 394.7 350S390.7 349.7 389.7 351.3L366.6 391.8 360.8 369.5 370.7 351.7C371.6 350.1 371.1 348.3 369.5 347.3 368 346.4 366.1 346.9 365.2 348.5L358.3 360.2 353.9 343.5C353.6 342.3 351.9 340.7 350 341.2 348.2 341.7 346.8 344.1 347.1 345.3L351.5 362 339.8 355.2C339 354.7 338.2 354.2 337.6 354.4 336.4 354.7 335.9 355.5 335.5 356.3 334.6 357.9 335.1 359.7 336.6 360.6L354 371.3 359.8 393.6 319.8 369.7C319 369.2 318.4 369.4 317.2 369.7 316.5 369.9 315.9 370 315.5 370.8 314.6 372.4 315.2 374.9 316.8 375.8L362.3 402.9 366 417.1 343.5 439.6 328.7 436.2 302.5 389.5C301.6 388.4 300 387.5 298.8 387.8 298.1 388 298.1 388 298.3 388.6 296.4 389.1 295.7 391.2 296.8 392.9L320 433.2 297.2 427.2 287.2 409.4C286.3 408.3 284.9 408 283.6 408.3 283.6 408.3 283 408.5 283 408.5 281.2 409 280.4 411.1 281.5 412.8L288.6 424.9 272.3 420.6C271.5 420.1 270.9 420.3 270.3 420.4 269 420.7 268 421.7 268.1 422.3 267.4 424.5 268.5 426.2 270 427.1L286.4 431.4 274.8 437.8C273.1 438.9 272.4 441 273.5 442.7 274.4 443.8 276.6 444.6 277.7 443.6L295.6 433.6 317.7 439.7 277.5 462.9C275.8 464 275.6 466 276.1 467.9 277.1 468.9 279.3 469.7 280.9 468.6ZM355.4 472.2L349 448 348 444.3 350.6 441.6 368 424.5 371.2 421.7 374.8 422.7 398.3 429.1 401.9 430.2 402.9 433.9 409.2 458 410.2 461.7 407.6 464.4 390.2 481.5 387.6 484.2 383.4 483.3 359.9 476.9 356.3 475.9 355.4 472.2Z" fill="rgba(243, 236, 236, 0.9882352941176471)"></path><path d="M1204.4 567.9L1209 554.7 1214.8 560.9C1215.4 561.6 1216.6 561.7 1217.7 561.1 1218.3 560.2 1218.5 558.9 1217.5 558.3L1210.6 550.3 1213.7 539.9 1228.2 556.5C1229.1 557.1 1230.4 557.3 1231.1 556.7 1232.1 555.7 1232.3 554.4 1231.3 553.8L1215.3 535.5 1220.6 519.7 1231.6 535.4 1235.5 516.6 1246.6 529 1239.1 552.2C1238.8 552.3 1238.8 552.7 1238.9 553.1 1239.1 553.9 1239.6 554.6 1240.5 554.8 1241.4 555 1242.5 554.4 1243.1 553.4L1249.8 532.5 1256.8 540.8 1253.6 550.9C1253.3 551.3 1253.3 551.7 1253.4 552.1 1253.5 552.5 1254.1 553.2 1254.9 553.5 1255.8 553.7 1256.9 553.1 1257.1 552.2L1260 544.2 1269.4 554.6C1270.1 555.6 1271.2 555.4 1272.3 554.8 1273 554.2 1273.2 553 1272.2 551.9L1263.1 541.6 1271.3 539.9C1272.5 539.6 1273 538.3 1272.9 537.5 1272.6 536.3 1271.7 535.7 1270.5 536L1259.9 538.1 1252.9 529.8 1274.1 525.4C1275.2 525.2 1275.9 524.2 1275.6 523.1 1275.5 522.3 1274.4 521.3 1273.3 521.5L1249.7 526.3 1238.6 513.9 1257.4 512.1 1243.4 499.5 1259.9 496.1 1275.8 514C1276.8 515 1278 514.8 1278.7 514.3 1279.4 513.7 1279.6 512.4 1278.9 511.4L1264.2 495.2 1274.7 493 1282.1 500.9C1282.7 502 1284 502.1 1285 501.1 1285.7 500.6 1285.8 499.3 1284.8 498.3L1279.4 492 1293.2 489.2C1294.3 489 1295 488 1294.7 486.9S1293.5 485.1 1292.4 485.3L1278.6 488.1 1281.1 480.3C1281.6 478.9 1281 477.8 1280.2 477.6 1278.8 477.1 1277.7 477.7 1277.6 479L1273.9 489.1 1263.4 491.3 1270.5 470.6C1270.7 469.3 1270.1 468.3 1269.2 468 1267.9 467.5 1266.8 468.1 1266.6 469.4L1259.1 492.2 1242.6 495.6 1250.5 478.4 1232.5 484.2 1237.8 468.4 1261.3 463.5C1262.5 463.3 1263 461.9 1262.9 461.2 1262.6 460 1261.7 459.4 1260.5 459.6L1239 464 1242.5 453.5 1253.1 451.3C1254.3 451.1 1254.9 450.1 1254.7 449 1254.5 448.2 1253.5 447.2 1252.3 447.4L1244.1 449.1 1248.3 436C1248.8 434.6 1248.2 433.5 1247 433.4 1246.1 433.2 1244.9 433.4 1244.8 434.7L1240.1 447.9 1234.4 441.7C1233.8 441 1232.6 440.9 1231.9 441.4 1231.2 442 1230.9 442.8 1231 443.2 1231.1 443.6 1231.2 444 1231.6 444.3L1238.6 452.3 1235.4 462.7 1221 446.1C1220 445.5 1218.8 445.3 1218.1 445.9 1217.4 446.4 1217.1 447.3 1217.3 448.1 1217.4 448.5 1217.4 448.5 1217.9 448.8L1233.9 467.1 1228.6 482.9 1217.6 467.2 1213.7 486 1202.5 473.6 1210 450.4C1210.3 449.5 1210 448.4 1208.7 447.8 1207.8 447.6 1206.7 448.2 1206.1 449.2L1199.4 470.1 1192.4 461.8 1195.6 451.7C1196.2 450.8 1195.6 449.7 1194.2 449.1 1193.4 448.9 1192.3 449.5 1191.7 450.5L1189.2 458.4 1179.7 448C1179.1 447 1177.9 447.2 1176.8 447.8 1176.5 448.3 1176.3 449.2 1176.4 449.6 1176.4 449.9 1176.5 450.3 1177 450.7L1186.1 461 1177.8 462.7C1176.7 463 1176.1 464.3 1176.3 465.1L1176.3 465.1C1176.5 466.3 1177.5 466.9 1178.7 466.6L1189.2 464.5 1196.3 472.8 1175.1 477.2C1173.9 477.4 1173.3 478.4 1173.6 479.5S1174.7 481.3 1175.9 481.1L1199.4 476.3 1210.6 488.7 1191.7 490.5 1205.8 503.1 1189.3 506.5 1173.4 488.6C1172.3 487.5 1171.2 487.8 1170.5 488.3 1169.8 488.9 1169.6 490.2 1170.2 491.2L1184.6 507.5 1174.4 509.6 1167.1 501.7C1166.5 500.6 1165.2 500.5 1164.2 501.5 1163.5 502 1163.3 503.3 1164 504.4L1169.7 510.5 1156 513.4C1154.8 513.6 1154.2 514.6 1154.5 515.7S1155.6 517.5 1156.8 517.3L1170.5 514.5 1168.1 522.3C1167.8 522.8 1167.8 523.2 1167.9 523.6 1168.1 524.4 1168.5 524.7 1169 525 1170.4 525.5 1171.5 524.9 1171.6 523.6L1175.2 513.5 1185.8 511.3 1178.6 532C1178.7 532.4 1178.8 532.8 1178.9 533.2 1179 534 1179.5 534.3 1180 534.6 1181.3 535.1 1182.4 534.5 1182.6 533.2L1190.1 510.4 1206.6 507 1198.7 524.2 1216.7 518.4 1211.4 534.2 1187.8 539.1C1186.7 539.3 1186.1 540.7 1186.3 541.4 1186.5 542.6 1187.5 543.2 1188.7 543L1209.8 538.6 1206.7 549.1 1196.1 551.3C1194.9 551.5 1194.3 552.5 1194.5 553.6S1195.7 555.4 1196.9 555.2L1205.1 553.5 1200.9 566.6C1200.6 567.1 1200.6 567.5 1200.7 567.9 1200.8 568.3 1201.4 569 1202.2 569.2 1203.1 569.4 1204.3 569.2 1204.4 567.9ZM1205.9 517.8L1212.4 503.8 1200.9 493.5 1216.5 491.9 1219.6 477 1228.7 489.4 1243.2 484.8 1236.7 498.8 1248.2 509.1 1233 510.6 1229.6 525.6 1220.9 513.1 1205.9 517.8Z" fill="rgba(243, 236, 236, 0.9882352941176471)"></path><path d="M261.4 212.8L217 218.6 204.3 208.4 219.3 206.5C220.9 206.7 221.7 205.1 221.9 203.5 221.5 202.3 220 201 218.8 201.4L198.2 203.6 185.4 194 200.3 188.1 219.5 196.4C219.5 196.4 220.1 196.4 220.1 196.4 221.2 196.6 222.5 195.6 223.2 194.6 223.4 192.9 223 191.8 221.4 191L207.5 185.1 222.4 179.2 263.6 196.2C263.6 196.2 264.1 196.8 264.1 196.8 265.2 197 266.5 196 267.2 195 268 193.4 267.1 191.6 265.4 191.3L229.6 176.3 247.6 168.6 263.7 175.3C263.7 175.3 263.7 175.3 264.2 175.3 265.3 175.5 266.5 175.1 267.2 174.1 267.5 172.4 267.1 170.7 265.5 169.9L254.8 165.6 268 160C269.7 159.7 270 158 269.6 156.9 269.2 155.1 267.7 154.3 265.8 155.2L252.7 160.2 257.5 150.1C257.7 148.5 257.4 146.7 255.7 146.5 254.1 145.7 253 146.1 252.2 147.7L245.5 163.7 227.5 170.9 242.7 134.5C243.4 133.5 242.5 131.7 240.9 130.9 239.8 130.7 238.1 131.1 237.3 132.7L220.3 173.9 205.4 179.7 211.3 165.8C212 164.3 211.1 163 209.5 162.2 208.5 161.5 206.6 162.4 205.9 163.4L198.2 182.7 183.2 189.1 185.4 173.1 201.8 160.6C203.1 159.6 203.3 158 202.3 156.7 201.9 155.5 199.7 155.2 198.4 156.2L186.5 165.3 188.7 149.2 224.5 122.4C225.8 121.5 226 119.8 225.1 118.6 224.1 117.3 222.4 117.1 221.2 118L189.7 141.4 192.3 122.6 206.2 112C207.4 111.1 207.7 109.4 206.7 108.1 205.8 106.9 204.1 106.7 202.8 107.6L193.4 114.2 195.3 100.4C195.6 98.7 194.6 97.4 192.9 97.2 191.3 97 190 97.9 189.8 99.6L187.9 113.5 181.2 104.7C180.2 103.4 178.6 103.2 177.3 104.1S175.8 106.7 176.8 108L186.8 121.3 184.2 140.7 160.7 109.8C159.7 108.5 158.1 108.3 156.8 109.2 155.6 110.2 155.3 111.9 156.3 113.1L183.1 148.4 180.9 164.5 171.8 152.5C170.9 151.3 169.2 151.1 167.9 152 166.7 153 166.4 154.6 167.4 155.9L179.9 172.3 177.7 187.8 165.5 178.2 162.7 157.5C162.3 156.3 160.7 155 159.6 155.4 157.8 155.7 157.1 156.8 156.9 158.4L158.8 173.4 146.5 163.8 140.7 119.5C140.4 117.7 139.4 117 137.7 116.8 136 117.1 135.2 118.7 135 119.8L139.9 158.9 124.6 146.7 122.3 130C122.6 128.3 121 127.5 119.3 127.3 118.1 127.7 116.8 129.2 117.1 130.9L118.5 141.9 107.2 133.5C106.2 132.3 104.5 132.6 103.1 134.1 102.4 135.2 102.7 136.9 103.8 137.6L115 146.5 103.5 147.7C101.8 148.1 101 149.7 101.4 150.8 101.2 152.5 102.2 153.2 103.3 153.4 103.9 153.4 103.9 153.4 104.4 153.5L121.1 151.3 136.4 163.5 97.9 168.4C96.2 168.2 95.4 169.8 95.2 171.5 95.6 172.7 96.6 173.4 97.7 173.5 98.3 173.6 98.3 173.6 98.3 173.6L143.1 168.4 155.3 178 140.4 179.9C138.6 180.2 137.9 181.3 137.7 182.9 138.1 184.1 139.1 185.4 140.2 185.5 140.7 185.6 140.7 185.6 141.3 185.7L162 182.9 174.3 192.4 159.9 198.4 140.6 190.7C139 189.9 137.2 190.8 136.5 191.8 136.3 193.5 136.6 195.2 138.3 195.4L152.2 201.3 137.7 207.8 96 190.2C95 189.5 93.2 190.4 92.5 191.4 92.2 193.1 92.6 194.8 94.2 195.6L130 210.7 112 217.9 96.5 211.2C95 210.4 93.1 211.3 92.9 213 92.2 214 92.5 215.8 94.1 216.5L104.8 220.8 91.6 226.4C90.5 226.8 89.7 228.4 90 230.1 90.5 230.7 91.5 231.4 92.6 231.6 92.6 231.6 93.2 231.7 93.7 231.7L106.9 226.2 102.6 236.9C101.9 238 102.8 239.8 103.8 240.5 104.4 240.6 104.4 240.6 104.4 240.6 106.1 240.8 107.3 239.8 107.5 238.7L114.1 223.2 132.1 215.5 117 251.9C116.8 253.5 117.2 254.7 118.8 255.5 118.8 255.5 119.3 255.6 119.3 255.6 120.4 255.7 121.6 255.3 122.4 253.7L139.9 212.6 154.2 206.7 148.4 220.6C148.2 222.2 148.5 224 150.2 224.2 150.1 224.7 150.6 224.8 150.6 224.8 151.7 225 153 224 153.7 223L161.4 203.7 176.4 197.8 174.2 213.4 157.9 225.8C156.6 226.8 156.3 229 157.2 230.2 158.3 231 159.9 231.2 161.1 230.8L173.2 221.1 171 237.2 135.7 264C134.4 265 134.2 266.7 135.1 267.9 136.1 269.2 137.8 269.4 139 268.5L169.9 245 167.3 264.4 154 274.5C152.8 275.4 152.5 277.1 153.5 278.3S156.1 279.8 157.4 278.9L166.2 272.2 164.3 286C164.1 287.7 165 289 166.7 289.2 168.4 289.4 169.6 288.5 169.9 286.8L171.8 272.9 179 281.8C179.5 282.5 180 283.1 180.5 283.2 181.1 283.2 182.3 282.8 182.9 282.4 184.2 281.4 184.4 279.7 183.4 278.5L172.8 265.2 175.5 245.7 199.5 276.7C200 277.3 200.5 278 201 278.1 201.6 278.1 202.8 277.7 203.4 277.2 204.6 276.3 204.9 274.6 203.9 273.4L176.5 238 178.7 221.9 187.8 234.4C188.2 235 189.3 235.2 189.9 235.3 190.5 235.4 191 235.4 191.6 234.9 192.9 234 193.2 231.8 192.2 231.1L179.8 214.1 181.9 198.6 194.7 208.2 197 228.9C197.4 230.1 198.4 231.3 199.5 231.5 200 231.6 200 231.6 200.1 231 201.8 231.2 203.1 229.7 202.8 228L200.9 213 213.7 222.7 218.9 267.5C219.3 268.7 220.3 269.4 221.4 269.5 222 269.6 222 269.6 222 269.6 223.7 269.3 225 268.3 224.6 266.6L219.8 227.5 235.1 239.8 237.3 256.4C237.6 258.2 238.7 258.9 239.8 259 239.8 259 240.3 259.1 240.3 259.1 242.1 258.8 242.9 257.2 243 256.1L241.2 244.5 252.4 253.4C253 253.5 253.5 253.6 254.1 253.7 254.6 253.7 255.8 253.3 256.5 252.8 257.2 251.3 257.5 249.6 255.9 248.8L244.7 239.9 256.1 238.7C257.9 238.3 258.7 236.8 258.8 235.6 258.5 233.9 256.9 233.1 255.2 232.9L238.5 235.1 223.2 223.4 261.7 218.5C263.5 218.2 264.8 216.7 264.4 215.5 264.1 213.8 263.1 212.5 261.4 212.8Z" fill="rgba(243, 236, 236, 0.9882352941176471)"></path><path d="M1350.9 284.9L1356.7 310.8 1343.9 330.7 1333.1 309.7 1341.3 284.4C1341.3 284.4 1341.3 284.1 1341.3 284.1 1341.3 283.5 1340.7 282.8 1340.1 282.5 1339.1 282.1 1338.2 282.7 1338.1 283.6L1331 305.7 1325.7 295.6 1328.7 285.8C1328.7 285.8 1328.7 285.4 1328.7 285.4 1328.8 284.8 1328.2 284.1 1327.5 283.8 1326.6 283.4 1325.6 284 1325.6 285L1323.3 291.6 1319.5 284.1C1319.2 283.4 1318 283 1317.3 283.3 1316.3 283.6 1316.3 284.9 1316.6 285.5L1320.4 293.1 1313.8 290.8C1312.8 290.5 1311.8 291.1 1311.8 292 1311.4 293 1312 294 1313 294L1322.8 297 1327.7 307.2 1305.6 300.1C1304.7 299.7 1303.7 300.3 1303.7 301.3 1303.3 302.2 1303.9 303.2 1304.8 303.2L1330.1 311.5 1341 332.5 1317 331.4 1299 311.6C1298.4 310.9 1297.4 310.9 1296.8 311.5 1296.1 312.1 1296.1 313.1 1296.7 313.7L1312.5 331.1 1301 330.6 1294.3 323.2C1293.7 322.6 1292.7 322.5 1292.1 323.1 1291.4 323.8 1291.3 324.7 1292 325.4L1296.5 330.4 1287.6 330C1286.6 329.6 1286 330.5 1285.9 331.5 1285.9 332.5 1286.5 333.1 1287.4 333.2L1295.7 333.6 1290.7 338.1C1290.1 338.7 1290 339.7 1290.6 340.4S1292.2 341.1 1292.9 340.5L1300.2 333.8 1311.7 334.3 1294.3 350.2C1293.7 350.8 1293.6 351.7 1294.2 352.4 1294.8 353.1 1295.8 353.1 1296.5 352.5L1316.2 334.5 1339.9 335.6 1327.1 355.5 1301.8 361.1C1300.9 361.4 1300.5 362.3 1300.4 363.3 1300.7 364.2 1301.7 364.6 1302.6 364.6L1325.3 359.6 1319.1 369.2 1309 371.3C1308.1 371.6 1307.7 372.6 1307.7 373.5 1307.9 374.5 1308.9 374.9 1309.5 374.9L1316.3 373.3 1311.8 380.4C1311.5 381.1 1311.4 382.3 1312.3 382.7 1313.3 383.1 1314.3 383.1 1314.6 382.2L1319.1 375 1320.7 381.8C1321 382.8 1321.9 383.2 1322.6 383.2 1323.2 382.9 1323.9 382.3 1323.9 381.6 1323.9 381.6 1323.9 381.3 1323.9 381.3L1321.9 371.3 1328.1 361.7 1333.1 384.3C1333.4 385.3 1334.3 385.7 1335 385.7 1335.6 385.4 1336.3 384.8 1336.3 384.1 1336.3 384.1 1336.3 383.8 1336.3 383.8L1330.5 357.9 1343.3 338 1354.1 359 1345.9 384.3C1345.5 385.2 1346.1 386.2 1347.1 386.3 1348 386.6 1349 386 1349.1 385.1L1356.2 363 1361.5 373.1 1358.5 382.9C1358.1 383.9 1358.7 384.9 1359.7 384.9 1360.6 385.3 1361.6 384.7 1361.6 383.7L1363.9 377.1 1367.7 384.7C1368 385.3 1369.2 385.7 1369.9 385.4 1370.5 385.1 1370.9 384.5 1370.9 383.8 1370.9 383.5 1370.9 383.2 1370.6 382.9L1366.8 375.3 1373.5 377.6C1374.4 377.9 1375.4 377.3 1375.4 376.4 1375.4 376.4 1375.4 376 1375.4 376 1375.5 375.4 1374.9 374.7 1374.2 374.4L1364.5 371.4 1359.2 361.2 1381.3 368.3C1382.2 368.7 1383.2 368.1 1383.2 367.1 1383.2 367.1 1383.2 366.8 1383.2 366.8 1383.3 366.2 1382.7 365.5 1382 365.1L1356.8 356.9 1345.9 335.9 1369.6 337 1387.6 356.7C1388.2 357.4 1389.1 357.5 1389.8 356.9 1390.5 356.2 1390.5 355.3 1389.9 354.6L1374.4 337.2 1385.9 337.8 1392.6 345.1C1393.2 345.8 1394.2 345.8 1394.8 345.2S1395.5 343.7 1394.9 343L1390.4 338 1398.7 338.4C1399.6 338.4 1400.3 337.8 1400.3 336.8 1400.4 335.9 1399.8 335.2 1398.8 335.2L1390.5 334.8 1395.5 330.2C1395.9 329.9 1396.2 329.6 1396.2 329S1395.9 328 1395.6 327.7C1395 327 1394.1 326.9 1393.4 327.5L1386 334.3 1374.5 333.7 1391.9 317.9C1392.3 317.6 1392.6 317.3 1392.6 316.6 1392.6 316.3 1392.4 315.6 1392.1 315.3 1391.4 314.6 1390.5 314.6 1389.8 315.2L1370.1 333.2 1346.4 332.1 1359.2 312.2 1385.1 306.3C1385.8 306 1386.4 305.4 1386.5 304.8 1386.5 304.8 1386.5 304.5 1386.5 304.5 1386.2 303.5 1385.3 303.1 1384.6 303.1L1362 308.1 1368.2 298.5 1378.2 296.4C1378.9 296.1 1379.5 295.5 1379.6 294.9 1379.6 294.9 1379.6 294.5 1379.6 294.5 1379.3 293.6 1378.4 293.2 1377.7 293.2L1370.9 294.8 1375.4 287.6C1375.4 287.3 1375.8 287 1375.8 286.7 1375.8 286 1375.5 285.4 1374.9 285 1373.9 284.7 1373 284.6 1372.6 285.6L1368.1 292.7 1366.5 285.9C1366.2 285 1365.3 284.6 1364.7 284.6 1363.7 284.8 1363.3 285.8 1363.3 286.4L1365.4 296.4 1359.2 306.1 1354.1 283.4C1353.9 282.5 1352.9 282.1 1352.3 282.1 1351.3 283 1350.6 283.9 1350.9 284.9Z" fill="rgba(243, 236, 236, 0.9882352941176471)"></path><path d="M792.9 388.4L782.1 394.8 781.7 386.4C781.7 385.5 780.9 384.6 779.6 384.4 778.5 384.7 777.6 385.5 777.6 386.4L777.9 397.5 767.8 403.5 767.4 380.9C767.3 379.4 766.4 378.5 765.3 378.8 764.1 378.6 763.1 379.5 763.3 380.9L763.8 405.8 754.9 411.4 733.4 399.7 733 390.4 755.9 376.9C756.1 376.5 756.3 376.2 756.5 375.8 756.7 375.5 756.7 374.6 756.5 374.1 755.9 372.8 754.6 372.6 753.7 373.4L732.8 385.8 732.7 374.3 743.2 367.7C743.5 367.9 743.7 367.5 743.9 367.2 744.3 366.5 744.3 365.6 743.8 364.8 743.3 364.1 742 363.9 740.9 364.2L732.5 369.6 732.1 355.3C732.2 354.4 731.3 353.5 730.1 353.3 729 353.6 728 354.4 728 355.3L728.4 368.8 721.1 364.7C720 364.2 718.7 364.8 718.3 365.5 717.8 366.6 717.9 368 719 368.6L728.4 373.8 728.6 385.2 708.9 374.5C707.8 373.9 706.8 374.3 706.2 375.3 705.6 376.4 705.9 377.5 707 378L728.8 389.9 729.3 399.8 708.3 412.4 700.2 408 699.5 382.6C699.7 381.4 698.5 380.2 697.4 380.6 696.2 380.3 695.6 381.4 695.4 382.6L696 405.7 685.8 400.2 685.7 388.7C685.7 387.8 684.5 386.7 683.6 386.7S681.6 387.9 681.4 389.1L681.6 397.9 669.3 391.2C668.2 390.6 667 391.3 666.4 392.4 666 393.1 666.1 394.5 667.2 395.1L679.5 401.8 671.8 406.7C671.1 407.2 670.5 408.2 671.1 409.5 671.7 410.3 673.3 410.7 674 410.2L683.7 404.1 693.9 409.6 674.1 421.6C673.2 422.5 672.6 423.5 673.3 424.8 673.8 425.5 675.4 426 676.1 425.5L698.1 411.9 706.2 416.3 706.9 440.9 698.3 445.7 676.6 433.9C675.5 433.3 674.4 433.6 673.8 434.7 673.3 435.7 673.4 437.2 674.4 437.7L694.1 448.5 684.4 454.6 674.9 449.4C673.9 448.8 672.8 449.1 672.2 450.2 671.6 451.2 672 452.3 673 452.9L680.4 456.9 668.9 463.9C668.1 464.4 667.7 466 668.2 466.7 669.1 467.6 670.1 468.2 671.1 467.3L683.1 460.2 683.3 469.9C683.7 471 684.5 471.9 685.4 472 686.3 472 687 471.5 687.4 470.8 687.4 470.8 687.6 470.4 687.4 469.9L687.3 457.5 697.1 451.4 698 475.6C697.8 476.9 698.6 477.8 700.1 477.7 700.6 477.5 701.1 477.3 701.5 476.6 701.7 476.3 701.9 475.9 702.1 475.6L701.1 449.1 709.1 444.3 730.5 456 730.7 466.6 709.5 479.6C708.2 480.3 708 481.5 708.8 482.5 709.2 483.5 710.4 483.8 711.7 483.1L730.9 471.2 731.4 482.9 721.9 488.6C721.1 489.2 720.9 490.4 721.2 491.5 722.1 492.4 723.1 493 724.1 492.1L731.4 487.9 731.8 500.5C731.6 501.7 732.7 502.3 733.9 502.5 734.5 502.3 735.2 501.8 735.6 501.1 735.6 501.1 735.8 500.8 736 500.4L735.5 487 744.3 491.8C745 492.1 746.5 492 747 491 747.6 489.9 746.9 488.6 746.2 488.3L735.3 482.3 734.9 470.7 756.3 482.3C757.3 482.9 758.6 482.2 759.2 481.2S759.4 479.1 758.4 478.5L734.9 465.7 734.7 456 755.7 443.3 764.8 448.3 765.3 474.1C765.7 475.2 766.5 476.1 767.8 476.3 768.3 476.1 769 475.6 769.4 474.9 769.6 474.6 769.8 474.2 769.7 473.7L769 450.6 779.2 456.1 779.7 467.8C779.7 468.7 780.5 469.6 781.8 469.8 782.9 469.5 783.8 468.6 783.8 467.7L783.4 458.4 794.7 464.5C795.4 464.9 797 464.5 797.4 463.7 798 462.7 797.5 461.1 796.8 460.7L785.5 454.6 793.4 450.2C793.6 449.8 793.8 449.5 794 449.1 794.4 448.4 794.4 447.5 794.2 447 793.4 446.1 792.1 445.8 791 446.2L781.3 452.3 771.1 446.7 790.9 434.7C792.2 434 792.4 432.8 791.9 432 791.2 430.8 790 430.6 788.9 430.9L766.9 444.4 757.8 439.4 757.1 414.9 765.3 409.8 788.8 422.6C789.9 423.2 791 422.9 791.5 421.8 792.1 420.8 791.8 419.7 790.7 419.1L769.3 407.4 779.4 401.5 790.3 407.5C791 407.9 792.6 407.4 793.2 406.3 793.7 405.3 793.1 404 792.4 403.6L783.6 398.8 795.1 391.9C795.3 391.5 795.3 391.5 795.5 391.2 795.9 390.5 795.9 389.6 795.7 389 794.9 388.1 793.6 387.9 792.9 388.4ZM753.6 437.1L753.5 439.8 751.5 441 734.5 451.3 732.5 452.5 730.3 451.4 713.1 442 711 440.8 710.9 438.5 710.4 418.6 710.3 416.3 712.5 414.7 729.3 404.8 731.5 403.2 733.6 404.4 750.8 413.8 752.9 414.9 752.8 417.6 753.6 437.1Z" fill="rgba(243, 236, 236, 0.9882352941176471)"></path></g><defs><mask id="SvgjsMask1008"><rect width="1440" height="560" fill="#ffffff"></rect></mask><filter id="SvgjsFilter1009"><feGaussianBlur stdDeviation="1"></feGaussianBlur></filter></defs></svg>