<svg xmlns="http://www.w3.org/2000/svg" version="1.1" xmlns:xlink="http://www.w3.org/1999/xlink" xmlns:svgjs="http://svgjs.com/svgjs" width="1440" height="560" preserveAspectRatio="none" viewBox="0 0 1440 560"><g mask="url(&quot;#SvgjsMask1012&quot;)" fill="none"><rect width="1440" height="560" x="0" y="0" fill="rgba(25, 109, 77, 1)"></rect><circle r="5.75" cx="21.27" cy="48.18" filter="url(#SvgjsFilter1013)" fill="rgba(214, 239, 199, 1)"></circle><circle r="6.805" cx="220.10500000000002" cy="102.655" filter="url(#SvgjsFilter1013)" fill="rgba(214, 239, 199, 1)"></circle><circle r="5.335" cx="946.315" cy="436.35499999999996" filter="url(#SvgjsFilter1013)" fill="rgba(214, 239, 199, 1)"></circle><circle r="6.75" cx="279.61" cy="103.2" filter="url(#SvgjsFilter1013)" fill="rgba(214, 239, 199, 1)"></circle><circle r="6.565" cx="821.565" cy="453.375" filter="url(#SvgjsFilter1013)" fill="rgba(214, 239, 199, 1)"></circle><circle r="4.75" cx="764.39" cy="517.54" filter="url(#SvgjsFilter1013)" fill="rgba(214, 239, 199, 1)"></circle><circle r="8.225" cx="1090.7649999999999" cy="53.385" filter="url(#SvgjsFilter1013)" fill="rgba(214, 239, 199, 1)"></circle><circle r="5.21" cx="113.27999999999999" cy="321.41999999999996" filter="url(#SvgjsFilter1013)" fill="rgba(214, 239, 199, 1)"></circle><circle r="8.635" cx="871.985" cy="343.605" filter="url(#SvgjsFilter1013)" fill="rgba(214, 239, 199, 1)"></circle><circle r="4.675" cx="1017.775" cy="53.845" filter="url(#SvgjsFilter1013)" fill="rgba(214, 239, 199, 1)"></circle><circle r="8.98" cx="1006.86" cy="515.89" filter="url(#SvgjsFilter1013)" fill="rgba(214, 239, 199, 1)"></circle><circle r="5.525" cx="1408.9350000000002" cy="39.714999999999996" filter="url(#SvgjsFilter1013)" fill="rgba(214, 239, 199, 1)"></circle><circle r="6.89" cx="1144.51" cy="60.37" filter="url(#SvgjsFilter1013)" fill="rgba(214, 239, 199, 1)"></circle><circle r="9.12" cx="1123.2399999999998" cy="30.509999999999998" filter="url(#SvgjsFilter1013)" fill="rgba(214, 239, 199, 1)"></circle><circle r="7.75" cx="131.85" cy="78.28" filter="url(#SvgjsFilter1013)" fill="rgba(214, 239, 199, 1)"></circle><circle r="7.165" cx="1210.835" cy="154.30499999999998" filter="url(#SvgjsFilter1013)" fill="rgba(214, 239, 199, 1)"></circle><circle r="8.83" cx="114.44" cy="205.03" filter="url(#SvgjsFilter1013)" fill="rgba(214, 239, 199, 1)"></circle><circle r="9.105" cx="1284.085" cy="128.625" filter="url(#SvgjsFilter1013)" fill="rgba(214, 239, 199, 1)"></circle><circle r="8.33" cx="1022.87" cy="31.950000000000003" filter="url(#SvgjsFilter1013)" fill="rgba(214, 239, 199, 1)"></circle><circle r="7.305" cx="1127.7350000000001" cy="26.365" filter="url(#SvgjsFilter1013)" fill="rgba(214, 239, 199, 1)"></circle><path d="M511.7 310.6L498.5 259.2 522.8 218.6 545.8 259.9 530.9 310.9C530.9 310.9 530.9 311.6 530.9 311.6 530.9 312.8 532.1 314.1 533.4 314.8 535.3 315.5 537.3 314.2 537.3 312.3L550.2 267.7 561.4 287.7 555.9 307.5C555.9 307.5 555.9 308.1 555.9 308.1 555.9 309.4 557.2 310.7 558.4 311.4 560.3 312 562.3 310.8 562.3 308.9L566.4 295.5 574.5 310.3C575.1 311.6 577.6 312.3 578.9 311.7 580.8 311.1 580.9 308.5 580.3 307.2L572.2 292.4 585.6 296.4C587.5 297.1 589.4 295.8 589.4 293.9 590.1 292 588.9 290.1 586.9 290L567.2 284.6 556.6 264.6 601.2 277.5C603.1 278.1 605.1 276.9 605.1 275 605.8 273.1 604.5 271.1 602.6 271.1L551.6 256.2 528.6 214.9 576.6 215.6 613.8 254C615 255.3 616.9 255.3 618.2 254.1 619.5 252.8 619.6 250.9 618.3 249.6L585.6 215.8 608.6 216.1 622.5 230.5C623.7 231.8 625.6 231.8 626.9 230.5 628.2 229.3 628.3 227.3 627 226L617.6 216.3 635.5 216.6C637.4 217.2 638.7 215.3 638.7 213.4 638.8 211.5 637.5 210.2 635.6 210.2L619 209.9 628.7 200.5C630 199.2 630 197.3 628.8 196S625.6 194.7 624.3 195.9L610 209.8 587 209.4 620.8 176.7C622.1 175.4 622.1 173.5 620.8 172.2 619.6 170.9 617.7 170.8 616.4 172.1L578 209.3 530.6 208.5 555 167.9 605.1 155.3C607 154.7 607.7 152.8 607.7 150.8 607.1 148.9 605.2 148.2 603.3 148.2L558.3 159.7 570.2 140 590.1 135.2C592 134.6 592.7 132.7 592.7 130.8 592.1 128.8 590.2 128.2 588.9 128.1L575.4 131.8 584 117.2C584.6 115.9 584.7 113.3 582.8 112.7 580.8 112 578.9 112 578.3 113.9L569.7 128.5 566.1 115C565.5 113 563.6 112.4 562.3 112.3 561 113 559.7 114.2 559.7 115.5 559.7 115.5 559.7 116.1 559.7 116.1L564.5 136.1 552.6 155.7 541.2 110.7C540.6 108.8 538.7 108.1 537.4 108.1 536.1 108.7 534.8 110 534.8 111.3 534.8 111.3 534.8 111.9 534.8 111.9L548 163.3 523.7 203.9 500.7 162.6 515.6 111.6C516.2 109.7 515 107.7 513.1 107.7 511.2 107 509.2 108.3 509.2 110.2L496.3 154.8 485.1 134.8 490.5 115C491.2 113.1 490 111.2 488 111.2 486.1 110.5 484.2 111.7 484.2 113.7L480.1 127 472 112.2C471.4 110.9 468.9 110.2 467.6 110.8 466.3 111.4 465.6 112.7 465.6 114 465.6 114.6 465.6 115.3 466.2 115.9L474.3 130.8 460.9 126.7C459 126.1 457.1 127.3 457 129.2 457 129.2 457 129.9 457 129.9 457 131.1 458.3 132.4 459.5 133.1L479.3 138.5 490.5 158.6 445.9 145.7C444 145 442 146.3 442 148.2 442 148.2 442 148.8 442 148.8 442 150.1 443.2 151.4 444.5 152.1L495.5 167 518.5 208.3 471.1 207.5 434 169.2C432.7 167.9 430.8 167.8 429.5 169.1 428.2 170.4 428.2 172.3 429.4 173.6L461.5 207.4 438.5 207 424.6 192.7C423.4 191.4 421.5 191.4 420.2 192.6S418.8 195.8 420.1 197.1L429.5 206.9 412.9 206.6C411 206.6 409.7 207.8 409.6 209.8 409.6 211.7 410.9 213 412.8 213L429.4 213.3 419.7 222.7C419 223.3 418.4 224 418.4 225.3S419 227.2 419.6 227.8C420.9 229.1 422.8 229.2 424.1 227.9L438.4 214.1 461.4 214.4 427.6 247.2C427 247.8 426.3 248.4 426.3 249.7 426.3 250.3 426.9 251.6 427.5 252.3 428.8 253.6 430.7 253.6 432 252.4L470.4 215.2 517.7 216 493.4 256.5 442 269.8C440.7 270.4 439.4 271.7 439.4 273 439.4 273 439.3 273.6 439.3 273.6 440 275.5 441.9 276.2 443.1 276.2L488.1 264.8 476.3 284.4 456.4 289.2C455.1 289.9 453.8 291.1 453.8 292.4 453.8 292.4 453.8 293 453.8 293 454.4 295 456.3 295.6 457.6 295.7L471.1 292 462.5 306.6C462.5 307.3 461.8 307.9 461.8 308.5 461.8 309.8 462.4 311.1 463.7 311.8 465.6 312.4 467.5 312.5 468.2 310.5L476.8 296 480.4 309.5C481 311.4 482.9 312.1 484.2 312.1 486.1 311.5 486.8 309.6 486.8 308.3L482 288.4 493.8 268.7 505.3 313.7C505.9 315.6 507.8 316.3 509.1 316.3 511 314.4 512.3 312.5 511.7 310.6Z" fill="rgba(214, 239, 199, 1)"></path><path d="M1033.7 550.4L1064.5 515.6 1105.8 513.3 1087.1 550.3 1042.9 564.5C1042.9 564.5 1042.4 564.8 1042.4 564.8 1041.5 565.4 1041.2 566.9 1041.3 568.2 1041.8 569.9 1043.6 570.7 1045 569.8L1083.7 557.2 1074.7 575.2 1057.7 580.9C1057.7 580.9 1057.2 581.2 1057.2 581.2 1056.3 581.8 1056 583.4 1056.1 584.6 1056.5 586.3 1058.4 587.1 1059.8 586.2L1071.5 582.6 1064.7 595.7C1064.1 596.8 1064.8 599 1065.9 599.6 1067.3 600.7 1069.2 599.5 1069.8 598.4L1076.6 585.3 1080.2 596.9C1080.7 598.7 1082.5 599.5 1083.9 598.5 1085.6 598.1 1086.4 596.2 1085.5 594.8L1079.8 577.8 1089.1 560.4 1101.6 599C1102.1 600.7 1103.9 601.5 1105.4 600.6 1107.1 600.1 1107.9 598.3 1106.9 596.9L1092.7 552.6 1111.4 515.7 1134.4 550.8 1124.8 596.6C1124.5 598.1 1125.4 599.5 1126.9 599.8 1128.5 600.2 1129.9 599.2 1130.2 597.7L1138.7 557.4 1149.7 574.2 1146.1 591.3C1145.8 592.9 1146.7 594.3 1148.3 594.6 1149.8 594.9 1151.2 594 1151.6 592.4L1154 580.8 1162.6 593.9C1163 595.6 1165 595.7 1166.4 594.7 1167.9 593.8 1168.2 592.3 1167.3 590.9L1159.3 578.7 1170.9 581.1C1172.5 581.4 1173.9 580.5 1174.2 579S1173.6 576 1172 575.7L1155 572.1 1143.9 555.2 1184.3 563.7C1185.8 564 1187.2 563.1 1187.5 561.5 1187.9 560 1186.9 558.6 1185.4 558.2L1139.7 548.7 1117 514 1158.3 511.7 1192.1 541.8C1193.4 542.9 1195.2 542.5 1196.6 541.6 1197.7 540.2 1197.2 538.5 1196.3 537.1L1165.9 510.1 1186 509 1199.2 521.1C1200.6 522.2 1202.3 521.7 1203.7 520.8 1204.8 519.4 1204.4 517.7 1203.8 516.8L1194.5 508.8 1209.3 507.8C1210.5 507.7 1212.4 506.4 1211.9 504.7 1211.5 503 1210.6 501.6 1208.9 502.1L1194.1 503 1202.1 493.8C1203.2 492.4 1202.7 490.7 1202.1 489.7 1201.1 489.1 1199.5 488.8 1198.6 489.4 1198.6 489.4 1198.1 489.7 1198.1 489.7L1186 503 1166 504 1193 473.7C1194.1 472.3 1193.6 470.6 1193 469.6 1191.9 469 1190.4 468.7 1189.4 469.3 1189.4 469.3 1188.9 469.6 1188.9 469.6L1158.2 504.4 1116.9 506.7 1135.5 469.7 1179.8 455.5C1181.5 455.1 1182.3 453.2 1181.3 451.8 1180.9 450.1 1179 449.3 1177.6 450.2L1139 462.8 1148 444.8 1165 439.1C1166.7 438.6 1167.5 436.8 1166.6 435.4 1166.1 433.7 1164.3 432.9 1162.9 433.8L1151.2 437.4 1158 424.3C1158.6 423.2 1157.8 421 1156.8 420.4 1155.7 419.8 1154.4 419.9 1153.5 420.5 1153 420.8 1152.6 421.1 1152.4 421.9L1145.6 435 1142 423.4C1141.5 421.6 1139.7 420.9 1138.3 421.8 1138.3 421.8 1137.8 422.1 1137.8 422.1 1136.9 422.7 1136.5 424.2 1136.7 425.5L1142.4 442.5 1133.4 460.4 1120.9 421.8C1120.4 420.1 1118.6 419.3 1117.1 420.2 1117.1 420.2 1116.7 420.5 1116.7 420.5 1115.7 421.1 1115.4 422.7 1115.6 423.9L1129.8 468.1 1111.1 505.1 1088.4 470.4 1098 424.7C1098.3 423.1 1097.4 421.7 1095.9 421.4 1094.3 421.1 1092.9 422 1092.6 423.6L1083.8 463.4 1072.8 446.5 1076.4 429.5C1076.7 427.9 1075.8 426.5 1074.2 426.2S1071.3 426.8 1070.9 428.3L1068.5 440 1060.5 427.8C1059.6 426.4 1058.1 426.1 1056.7 427 1055.3 427.9 1054.9 429.5 1055.9 430.9L1063.8 443 1052.2 440.6C1051.4 440.4 1050.7 440.3 1049.7 440.9S1048.6 442.3 1048.5 443.1C1048.1 444.6 1049.1 446 1050.6 446.3L1067.7 449.9 1078.7 466.8 1038.4 458.4C1037.6 458.2 1036.8 458 1035.9 458.6 1035.4 459 1034.8 460 1034.6 460.8 1034.3 462.4 1035.2 463.8 1036.8 464.1L1082.5 473.6 1105.2 508.3 1063.9 510.6 1029 479.9C1028 479.2 1026.4 478.9 1025.5 479.5 1025.5 479.5 1025 479.8 1025 479.8 1023.9 481.2 1024.3 482.9 1025 483.9L1055.3 510.8 1035.3 511.9 1022 499.8C1020.9 499.2 1019.4 498.9 1018.5 499.5 1018.5 499.5 1018 499.8 1018 499.8 1016.9 501.2 1017.3 502.9 1018 503.8L1027.2 511.8 1012.4 512.8C1012 513.1 1011.2 513 1010.7 513.3 1009.8 513.9 1009.2 515 1009.3 516.2 1009.8 517.9 1010.7 519.3 1012.4 518.9L1027.2 517.9 1019.2 527.2C1018.1 528.5 1018.5 530.3 1019.1 531.2 1020.5 532.3 1022.2 531.8 1023.2 531.2L1035.2 518 1055.3 516.9 1028.3 547.3C1027.2 548.7 1027.7 550.4 1028.3 551.3 1030.6 551.8 1032.6 551.8 1033.7 550.4Z" fill="rgba(214, 239, 199, 1)"></path><path d="M781.9 452.7L793.6 483.8 781.1 510.6 764.1 486.4 770 453.8C770 453.8 770 453.4 770 453.4 769.9 452.6 769 451.8 768.2 451.5 767 451.2 765.8 452.1 765.9 453.3L760.9 481.9 752.6 470.2 754.7 457.5C754.7 457.5 754.6 457.1 754.6 457.1 754.6 456.4 753.7 455.6 752.9 455.3 751.6 455 750.5 455.9 750.6 457.1L749 465.7 743 457C742.5 456.2 740.9 456 740.1 456.5 739 457 739.1 458.6 739.6 459.3L745.6 468 737 466.4C735.8 466.1 734.6 467 734.7 468.2 734.5 469.4 735.4 470.5 736.6 470.4L749.2 472.5 757.1 484.2 728.5 479.2C727.3 478.9 726.2 479.8 726.3 481 726 482.2 726.9 483.3 728.1 483.2L760.7 489.1 777.8 513.3 747.9 516 722.3 494.6C721.4 493.9 720.2 494 719.5 494.9 718.8 495.7 718.9 496.9 719.7 497.6L742.3 516.5 728 517.8 718.4 509.8C717.6 509.1 716.4 509.2 715.6 510.1 714.9 510.9 715 512.1 715.9 512.9L722.4 518.3 711.2 519.3C710 519 709.3 520.3 709.4 521.5 709.5 522.7 710.4 523.4 711.6 523.3L722 522.3 716.5 528.9C715.8 529.7 715.9 530.9 716.8 531.7S718.8 532.3 719.6 531.4L727.5 521.8 741.9 520.6 723 543.1C722.3 544 722.4 545.2 723.3 545.9 724.2 546.7 725.4 546.5 726.1 545.7L747.5 520 776.9 517.4 764.5 544.2 734.2 555.4C733 555.9 732.7 557.1 732.8 558.3 733.4 559.5 734.6 559.8 735.8 559.7L763 549.6 756.9 562.6 744.9 566.9C743.7 567.4 743.4 568.6 743.5 569.8 744 571 745.3 571.3 746.1 571.2L754.2 568 749.9 577.7C749.5 578.5 749.7 580.1 750.9 580.4 752.1 580.7 753.3 580.6 753.6 579.3L758 569.7 761.1 577.9C761.6 579 762.9 579.3 763.7 579.2 764.4 578.8 765.1 577.9 765.1 577.1 765.1 577.1 765 576.7 765 576.7L760.7 564.6 766.8 551.6 776.9 578.8C777.4 580 778.6 580.3 779.4 580.2 780.2 579.7 780.9 578.9 780.8 578.1 780.8 578.1 780.8 577.7 780.8 577.7L769.1 546.6 781.6 519.8 798.6 543.9 792.7 576.6C792.4 577.8 793.3 579 794.5 578.9 795.8 579.1 796.9 578.2 796.8 577L801.8 548.5 810.1 560.2 808.1 572.8C807.8 574 808.7 575.2 809.9 575.1 811.1 575.3 812.2 574.4 812.1 573.2L813.7 564.7 819.7 573.4C820.2 574.1 821.8 574.4 822.6 573.9 823.4 573.4 823.7 572.6 823.6 571.8 823.6 571.4 823.6 571 823.1 570.6L817.1 562 825.7 563.6C826.9 563.9 828 563 827.9 561.8 827.9 561.8 827.9 561.4 827.9 561.4 827.8 560.6 827 559.9 826.1 559.5L813.5 557.5 805.2 545.8 833.8 550.8C835 551.1 836.1 550.2 836 549 836 549 836 548.6 836 548.6 835.9 547.8 835 547.1 834.2 546.8L801.6 540.9 784.5 516.7 814 514 839.6 535.4C840.5 536.1 841.7 536 842.4 535.2 843.1 534.3 843 533.1 842.2 532.4L820 513.5 834.3 512.2 843.9 520.2C844.7 520.9 845.9 520.8 846.7 519.9S847.3 517.9 846.4 517.1L839.9 511.7 850.2 510.8C851.4 510.7 852.2 509.8 852.1 508.6 851.9 507.4 851.1 506.7 849.9 506.8L839.5 507.7 845 501.2C845.3 500.8 845.7 500.3 845.6 499.5S845.1 498.4 844.7 498C843.8 497.3 842.6 497.4 841.9 498.3L833.9 507.8 819.6 509.1 838.4 486.5C838.8 486.1 839.1 485.7 839.1 484.9 839 484.5 838.6 483.7 838.1 483.3 837.3 482.6 836.1 482.7 835.3 483.6L814 509.2 784.5 511.9 796.9 485.1 828 473.4C828.8 472.9 829.5 472.1 829.4 471.3 829.4 471.3 829.4 470.9 829.4 470.9 828.9 469.7 827.6 469.4 826.8 469.5L799.6 479.6 805.7 466.6 817.8 462.3C818.5 461.8 819.2 461 819.2 460.2 819.2 460.2 819.1 459.8 819.1 459.8 818.6 458.6 817.4 458.3 816.6 458.4L808.4 461.5 812.8 451.9C812.8 451.5 813.1 451.1 813.1 450.7 813 449.9 812.5 449.1 811.7 448.8 810.5 448.5 809.3 448.6 809 449.8L804.6 459.5 801.5 451.3C801 450.1 799.8 449.9 799 449.9 797.8 450.4 797.5 451.7 797.6 452.5L801.9 464.5 795.8 477.5 785.7 450.3C785.2 449.2 784 448.9 783.2 448.9 782.1 450.2 781.4 451.5 781.9 452.7Z" fill="rgba(214, 239, 199, 1)"></path><path d="M868.8 288.1L910.1 267.2 922.4 270.8 928.4 298.8 918.9 307.7 872.5 305.1C871.9 305.2 871.9 305.2 871.4 305.3 870.3 305.6 869.3 306.4 869.1 308.1 869.5 309.8 870.3 310.7 872 310.9L912.6 313.1 897.7 326.6 879.8 325.9C879.8 325.9 879.3 326 879.3 326 878.2 326.2 877.2 327 877 328.8 876.7 330 878.2 331.4 879.9 331.6L891.6 332.5 880.5 342.3C879.5 343.1 879.3 344.9 880.2 346.4S883.3 347.4 884.9 346.5L895.4 336.8 895 348.4C894.8 350.1 896.3 351.5 898 351.7 899.1 351.5 900.6 350.6 900.8 348.8L901.5 330.9 916.9 317.3 914.8 357.8C914.6 359.6 916.1 361 917.3 361.3 918.9 361 920.4 360.1 920.6 358.3L922.7 312 932.8 303 959.2 311.6 962.1 324.7 937.3 363.9C936.4 365.2 936.8 366.8 938.1 367.7S941.1 368.2 942 366.9L963.7 332.4 968.1 352.6 958.7 367.3C957.8 368.6 958.2 370.3 959.6 371.7S962.6 372.2 963.4 370.8L969.8 360.3 972.9 375.1C973.3 376.7 975.2 377.5 976.8 377.1 978.5 376.8 979.3 375.4 979 373.8L975.8 359 985.8 365.5C987.2 366.9 988.8 366.5 989.6 364.6 990.4 363.3 990.1 361.7 988.8 360.8L974.1 351.3 969.8 331.1 1003.8 353.5C1005.1 354.4 1007.3 353.9 1008.2 352.6S1008.7 349.6 1007.4 348.8L968.1 323.4 965.3 310.3 986.4 291.4 998.8 295.6 1019.7 336.9C1020.6 338.5 1022.4 338.7 1024 338.3 1025.5 337.4 1025.7 335.6 1025.4 334L1006.7 297.9 1025.8 304.1 1033.8 320.1C1034.7 321.7 1036.5 321.9 1038.1 321.5 1039.1 320.7 1039.9 318.8 1039 317.3L1033.9 307 1048 311.4C1049.2 311.7 1050.7 310.8 1051.6 309.4 1051.8 307.7 1050.9 306.2 1049.7 305.8L1035.5 301.4 1046.3 295.7C1047.3 294.9 1048 293 1047.3 292 1046.9 290.4 1045.7 290.1 1044.1 290.4 1044.1 290.4 1043.5 290.6 1043.5 290.6L1027.5 298.6 1008.4 292.4 1044.5 273.7C1046 272.8 1046.8 271.5 1045.9 270 1045 268.5 1043.8 268.1 1042.7 268.4 1042.2 268.5 1042.2 268.5 1042.2 268.5L1000.4 290.1 988.1 285.9 982.1 258 991.7 249.6 1038.5 251.5C1039.7 251.8 1041.1 250.4 1041.5 249.2 1041.7 247.4 1040.2 246 1038.4 245.8L997.9 243.7 1012.7 230.2 1030.6 230.9C1032.4 231.1 1033.9 230.2 1033.6 228.5 1033.8 226.8 1032.3 225.4 1031.1 225.1L1019 224.8 1030.1 215C1030.9 213.6 1031.1 211.9 1030.2 210.4 1029.6 209.9 1028.3 209.6 1027.2 209.8 1026.7 210 1026.7 210 1026.3 210.6L1015.2 220.5 1015.5 208.4C1015.7 206.6 1014.3 205.8 1013.1 205.4 1012.6 205.6 1012.6 205.6 1012 205.7 1010.9 205.9 1010 206.7 1009.6 207.9L1008.9 225.8 994.1 239.3 996.2 198.8C995.9 197.1 995 195.6 993.3 196 992.7 195.5 992.7 195.5 992.1 195.7 991 195.9 990.2 197.2 989.8 198.4L987.9 245.3 978.3 253.6 951.2 245.2 948.5 232.6 973.8 193.3C974.7 192 974.2 189.8 972.9 188.9S969.4 188.5 968.5 189.9L946.7 224.3 942.5 204.6 951.8 189.5C952.7 188.1 952.3 186.5 951 185.6 949.7 184.8 948 185.1 947.2 186.4L940.7 196.4 937.5 181.6C937.3 180.6 935.8 179.1 934.2 179.5 932.6 179.9 931.3 181.9 931.5 182.9L934.7 197.7 924.7 191.3C924 190.9 923.4 190.4 922.8 190.5 921.7 190.8 921.3 191.4 920.9 192.1 920 193.4 920.4 195.1 921.7 195.9L936.5 205.9 940.7 225.6 906.7 203.2C906 202.8 905.4 202.9 904.3 203.1 903.8 203.2 903.3 203.4 902.8 204 902 205.4 902.4 207.5 903.8 208.4L942.5 233.9 945.2 246.4 924.6 265.2 911.8 261.7 890.8 219.8C890 218.8 888.6 218 887.5 218.2 887 218.3 887 218.3 887.1 218.9 885.5 219.2 884.7 221.1 885.6 222.6L904.3 258.7 884.7 252.6 876.6 236.6C875.8 235.6 874.6 235.3 873.5 235.6 873.5 235.6 873 235.7 873 235.7 871.3 236 870.6 237.9 871.5 239.4L877.3 250.2 863.1 245.8C862.5 245.4 861.9 245.5 861.4 245.6 860.3 245.9 859.3 246.6 859.4 247.2 858.7 249.1 859.6 250.6 860.9 251.4L875 255.8 864.7 260.9C863.2 261.8 862.4 263.7 863.3 265.3 864.1 266.2 866 267 867 266.2L883 258.1 902.1 264.3 866 283C864.5 283.9 864.3 285.7 864.6 287.3 865.4 288.3 867.3 289 868.8 288.1ZM933.7 294.2L929.1 272.8 928.4 269.5 930.8 267.3 946.6 253 949.5 250.7 952.6 251.7 972.9 258.2 976 259.3 976.7 262.6 981.3 283.9 982.1 287.2 979.7 289.4 963.9 303.7 961.5 306 957.8 305 937.5 298.5 934.4 297.5 933.7 294.2Z" fill="rgba(214, 239, 199, 1)"></path><path d="M1417.1 526.6L1391.4 496.4 1392 485.4 1414.1 474.8 1423.4 481 1430.5 520.2C1430.8 520.6 1430.8 520.6 1431 521 1431.4 521.9 1432.2 522.6 1433.7 522.4 1435 521.7 1435.7 520.9 1435.5 519.4L1429.2 485.2 1443.4 494.8 1446.4 509.9C1446.4 509.9 1446.6 510.3 1446.6 510.3 1447 511.2 1447.8 511.9 1449.4 511.7 1450.4 511.7 1451.3 510.2 1451.1 508.7L1449.6 498.8 1460 506C1460.8 506.7 1462.3 506.5 1463.4 505.4S1463.7 502.7 1462.6 501.6L1452.4 494.8 1462.1 492.8C1463.6 492.6 1464.5 491.1 1464.3 489.6 1463.9 488.7 1462.8 487.6 1461.3 487.8L1446.2 490.8 1431.8 480.7 1466 474.4C1467.5 474.2 1468.4 472.7 1468.4 471.6 1467.8 470.3 1466.8 469.2 1465.3 469.4L1426.3 477 1416.7 470.4 1418.6 446.6 1429 441.6 1466.6 454.4C1467.8 454.8 1469.1 454.2 1469.6 452.9S1469.4 450.4 1468.1 449.9L1435 438.7 1451 431 1465.1 435.9C1466.4 436.4 1467.7 435.7 1468.6 434.2S1468.4 431.7 1467.1 431.2L1457.1 428.1 1468.8 422.4C1470.1 421.8 1470.3 420.1 1469.7 418.8 1469.1 417.5 1467.8 417.1 1466.5 417.7L1454.8 423.3 1458.2 413.7C1459 412.2 1458.4 410.9 1456.7 410.7 1455.4 410.2 1454.1 410.8 1453.7 412.1L1448.7 426.2 1432.7 433.9 1444.6 401C1445.1 399.7 1444.2 398 1443 397.6S1440.4 397.7 1439.9 399L1426.7 436.8 1416.3 441.8 1396.3 428 1397.4 416.8 1427.6 391.1C1428.7 390 1428.5 388.5 1427.9 387.2 1426.8 386.2 1425.3 386.3 1424 387L1397.7 409.7 1399 392.6 1410.8 382.7C1411.9 381.6 1411.7 380.1 1411 378.8 1410.2 378.2 1408.5 377.9 1407.4 379L1399.8 385.3 1400.6 372.7C1400.6 371.6 1399.6 370.5 1398.3 370 1396.8 370.2 1395.7 371.3 1395.7 372.4L1394.8 385 1387.9 377.2C1387 376.5 1385.3 376.3 1384.7 377.1 1383.4 377.8 1383.4 378.8 1384 380.1 1384 380.1 1384.2 380.6 1384.2 380.6L1394.1 392.3 1392.8 409.5 1370 383.1C1368.9 382 1367.6 381.6 1366.5 382.6 1365.5 383.7 1365.4 384.8 1365.9 385.6 1366.1 386.1 1366.1 386.1 1366.1 386.1L1392.4 416.5 1391.4 427.7 1369.3 438.3 1360.4 431.9 1352.7 392.5C1352.7 391.4 1351.2 390.6 1350.1 390.5 1348.6 390.7 1347.7 392.2 1347.9 393.7L1354.3 428 1340 418.3 1337 403.2C1336.8 401.7 1335.8 400.6 1334.5 401.3 1333 401.4 1332.1 402.9 1332.1 404L1334.3 414.1 1323.9 406.9C1322.6 406.4 1321.1 406.6 1320 407.7 1319.8 408.3 1319.8 409.4 1320.2 410.3 1320.4 410.7 1320.4 410.7 1321 410.9L1331.4 418.2 1321.3 420.4C1319.8 420.6 1319.4 421.8 1319.3 422.9 1319.5 423.4 1319.5 423.4 1319.8 423.8 1320.2 424.7 1321 425.3 1322.1 425.3L1337.2 422.3 1351.4 432 1317.2 438.3C1315.9 439 1314.8 440 1315.4 441.3 1315.2 442 1315.2 442 1315.4 442.4 1315.8 443.3 1317.1 443.7 1318.2 443.7L1357.6 436 1366.5 442.3 1364.8 466.6 1354.9 471.3 1317.1 458.1C1315.8 457.6 1314.1 458.5 1313.6 459.8S1314 462.8 1315.3 463.2L1348.4 474.5 1332.8 482 1318.3 477.2C1317 476.8 1315.7 477.4 1315.3 478.7 1314.8 480 1315.4 481.3 1316.7 481.7L1326.3 485.1 1314.6 490.7C1313.8 491.1 1312.9 492.6 1313.5 493.9 1314.1 495.2 1316.1 495.9 1316.9 495.4L1328.6 489.8 1325.2 499.4C1325 500.1 1324.8 500.7 1325 501.2 1325.4 502 1326.1 502.2 1326.7 502.5 1328 502.9 1329.3 502.3 1329.7 501L1335.1 486.7 1350.7 479.2 1338.8 512.1C1338.6 512.7 1338.8 513.2 1339.2 514 1339.4 514.5 1339.6 514.9 1340.2 515.1 1341.5 515.6 1343.3 514.7 1343.7 513.5L1357.2 476.1 1367.1 471.3 1386.9 484.7 1386.5 496.1 1355.8 522C1355.1 522.9 1354.7 524.2 1355.1 525 1355.3 525.5 1355.3 525.5 1355.8 525.2 1356.4 526.5 1358.1 526.8 1359.2 525.7L1385.5 502.9 1384.4 520.5 1372.6 530.4C1372 531.3 1372 532.4 1372.4 533.2 1372.4 533.2 1372.6 533.7 1372.6 533.7 1373.2 535 1374.9 535.2 1376 534.1L1383.9 527.2 1383 539.8C1382.8 540.5 1383 540.9 1383.2 541.3 1383.6 542.2 1384.5 542.9 1384.9 542.7 1386.6 542.9 1387.7 541.8 1388.2 540.6L1389 527.9 1395.3 535.5C1396.4 536.6 1398.1 536.8 1399.2 535.8 1399.8 534.9 1400.1 533.2 1399.2 532.6L1389.3 520.8 1390.7 503.7 1413.4 530C1414.5 531.1 1416 530.9 1417.3 530.3 1418 529.4 1418.2 527.7 1417.1 526.6ZM1409.2 471.3L1392.3 479.4 1389.7 480.7 1387.4 479.1 1372.3 468.8 1369.8 466.9 1370 464.1 1371.4 445.8 1371.6 443.1 1374.2 441.8 1391.1 433.7 1393.7 432.4 1396 434 1411.1 444.3 1413.4 445.8 1413.4 449.1 1412 467.3 1411.8 470.1 1409.2 471.3Z" fill="rgba(214, 239, 199, 1)"></path><path d="M1371.5 104.3L1346 102.5 1340 95.4 1348.6 96C1349.5 96.3 1350.1 95.5 1350.4 94.6 1350.3 93.9 1349.6 93 1348.9 93.1L1337.1 92 1331 85.2 1340 83.5 1349.9 90.3C1349.9 90.3 1350.2 90.4 1350.2 90.4 1350.8 90.7 1351.6 90.3 1352.1 89.8 1352.4 88.9 1352.3 88.1 1351.5 87.5L1344.4 82.7 1353.4 81.1 1374.6 95.2C1374.6 95.2 1374.8 95.6 1374.8 95.6 1375.4 95.8 1376.2 95.4 1376.7 94.9 1377.3 94.1 1377.1 93 1376.1 92.7L1357.8 80.2 1368.7 77.9 1377 83.5C1377 83.5 1377 83.5 1377.3 83.6 1377.9 83.8 1378.6 83.7 1379.1 83.2 1379.4 82.3 1379.4 81.3 1378.6 80.7L1373.1 77.1 1381.1 75.4C1382.1 75.4 1382.4 74.5 1382.3 73.8 1382.4 72.8 1381.6 72.2 1380.4 72.5L1372.5 73.8 1376.3 68.7C1376.6 67.8 1376.7 66.8 1375.7 66.5 1374.9 65.8 1374.2 65.9 1373.6 66.7L1368.1 75 1357.2 77 1369.8 58.3C1370.3 57.8 1370 56.7 1369.2 56.1 1368.6 55.9 1367.6 55.8 1367 56.6L1352.8 77.8 1343.8 79.4 1348.7 72.3C1349.3 71.5 1348.9 70.7 1348.1 70.1 1347.6 69.6 1346.5 69.9 1346 70.4L1339.5 80.3 1330.3 82.2 1333.4 73.4 1344 68.3C1344.8 67.9 1345.1 67 1344.7 66.2 1344.6 65.5 1343.4 65.1 1342.6 65.5L1334.8 69.2 1337.9 60.4 1361 49.5C1361.8 49.1 1362.1 48.2 1361.7 47.4 1361.3 46.6 1360.4 46.2 1359.6 46.6L1339.3 56.2 1342.9 45.9 1351.9 41.6C1352.7 41.2 1353 40.3 1352.6 39.5 1352.2 38.7 1351.3 38.3 1350.5 38.7L1344.5 41.4 1347.1 33.8C1347.4 32.9 1347 32.1 1346.1 31.8 1345.2 31.5 1344.4 31.9 1344.1 32.8L1341.4 40.4 1338.7 34.7C1338.3 33.8 1337.4 33.5 1336.6 33.9S1335.4 35.2 1335.8 36L1340 44.6 1336.3 55.2 1326.6 35.2C1326.2 34.4 1325.3 34.1 1324.5 34.5 1323.7 34.9 1323.4 35.8 1323.8 36.6L1334.8 59.4 1331.8 68.2 1328.1 60.4C1327.7 59.6 1326.8 59.3 1325.9 59.7 1325.1 60.1 1324.8 61 1325.2 61.8L1330.3 72.4 1327.4 80.9 1321.6 74.1 1322.4 62.2C1322.3 61.5 1321.6 60.6 1320.9 60.7 1319.9 60.6 1319.3 61.1 1319 62L1318.4 70.6 1312.6 63.9 1314.3 38.4C1314.4 37.4 1313.9 36.9 1313 36.6 1311.9 36.6 1311.3 37.4 1311.1 38L1309.4 60.4 1302.2 51.8 1302.9 42.2C1303.2 41.3 1302.4 40.7 1301.5 40.4 1300.8 40.5 1299.8 41.2 1299.8 42.2L1299.4 48.5 1294 42.5C1293.6 41.7 1292.6 41.7 1291.6 42.4 1291.1 42.9 1291.1 43.9 1291.6 44.4L1296.9 50.7 1290.3 50.1C1289.3 50.1 1288.7 50.9 1288.8 51.6 1288.5 52.5 1289 53 1289.6 53.2 1289.9 53.3 1289.9 53.3 1290.2 53.4L1299.8 54 1307 62.6 1284.8 61C1283.9 60.7 1283.3 61.5 1283 62.4 1283.1 63.1 1283.6 63.7 1284.2 63.9 1284.5 64 1284.5 64 1284.5 64L1310.2 66.1 1316 72.8 1307.4 72.2C1306.4 72.2 1305.8 72.7 1305.5 73.6 1305.6 74.3 1306 75.2 1306.6 75.4 1306.9 75.5 1306.9 75.5 1307.2 75.6L1319.2 76.3 1325 83.1 1316.2 84.8 1306.3 78.3C1305.5 77.7 1304.4 78 1303.9 78.5 1303.5 79.4 1303.5 80.4 1304.4 80.7L1311.6 85.5 1302.7 87.6 1281.4 73C1280.9 72.5 1279.7 72.8 1279.2 73.3 1278.9 74.2 1278.9 75.2 1279.7 75.9L1298.1 88.3 1287.2 90.3 1279.3 84.9C1278.5 84.2 1277.4 84.5 1277.1 85.4 1276.5 85.9 1276.5 86.9 1277.3 87.6L1282.9 91.2 1274.8 92.8C1274.1 92.9 1273.5 93.7 1273.5 94.7 1273.7 95.1 1274.2 95.6 1274.8 95.8 1274.8 95.8 1275.1 95.9 1275.4 96L1283.4 94.4 1279.8 99.9C1279.3 100.4 1279.6 101.6 1280.1 102.1 1280.4 102.2 1280.4 102.2 1280.4 102.2 1281.3 102.5 1282.1 102.1 1282.3 101.5L1287.8 93.6 1298.7 91.3 1286.2 109.9C1285.9 110.8 1286 111.5 1286.8 112.2 1286.8 112.2 1287.1 112.3 1287.1 112.3 1287.7 112.5 1288.4 112.4 1289 111.6L1303.4 90.5 1312.1 88.8 1307.3 95.9C1307 96.8 1307 97.8 1307.9 98.1 1307.8 98.4 1308.1 98.6 1308.1 98.6 1308.7 98.8 1309.5 98.4 1310 97.9L1316.5 87.9 1325.5 86.3 1322.6 94.8 1312 99.9C1311.2 100.3 1310.8 101.5 1311.2 102.3 1311.7 102.8 1312.6 103.2 1313.3 103.1L1321.1 99 1318.1 107.8 1295.3 118.8C1294.5 119.2 1294.2 120.1 1294.6 121 1294.9 121.8 1295.9 122.1 1296.7 121.7L1316.6 112 1313 122.6 1304.4 126.7C1303.6 127.1 1303.3 128 1303.7 128.9S1305 130 1305.8 129.6L1311.5 126.8 1308.9 134.4C1308.6 135.3 1308.9 136.1 1309.9 136.4 1310.8 136.7 1311.6 136.3 1311.9 135.4L1314.5 127.9 1317.6 133.7C1317.8 134.1 1318 134.5 1318.3 134.6 1318.6 134.7 1319.3 134.6 1319.7 134.4 1320.5 134 1320.8 133.1 1320.4 132.3L1316 123.6 1319.6 113.1 1329.6 133.1C1329.8 133.5 1330 133.9 1330.3 134 1330.6 134.1 1331.3 134 1331.7 133.8 1332.6 133.5 1332.9 132.5 1332.5 131.7L1321.1 108.8 1324.1 100.1 1327.8 108.1C1328 108.5 1328.6 108.7 1328.9 108.8 1329.2 108.9 1329.5 109 1329.9 108.8 1330.7 108.4 1331.1 107.2 1330.6 106.7L1325.6 95.8 1328.5 87.4 1334.6 94.2 1333.6 106C1333.7 106.7 1334.1 107.6 1334.7 107.8 1335 107.9 1335 107.9 1335.1 107.6 1336 107.9 1336.9 107.2 1336.9 106.2L1337.5 97.6 1343.6 104.4 1341.5 130.1C1341.6 130.8 1342.1 131.3 1342.7 131.5 1343 131.7 1343 131.7 1343 131.7 1344 131.7 1344.8 131.3 1344.8 130.3L1346.5 107.8 1353.7 116.4 1353.1 126C1353.1 127 1353.6 127.5 1354.2 127.7 1354.2 127.7 1354.5 127.8 1354.5 127.8 1355.5 127.9 1356.1 127 1356.3 126.4L1356.6 119.8 1361.9 126C1362.2 126.1 1362.5 126.2 1362.8 126.3 1363.1 126.4 1363.8 126.3 1364.2 126.1 1364.8 125.3 1365.1 124.4 1364.3 123.8L1359.1 117.6 1365.6 118.2C1366.6 118.2 1367.3 117.4 1367.5 116.8 1367.5 115.7 1366.7 115.1 1365.8 114.8L1356.2 114.2 1348.9 105.9 1371 107.5C1372 107.5 1372.9 106.8 1372.9 106.1 1372.9 105.1 1372.5 104.3 1371.5 104.3Z" fill="rgba(214, 239, 199, 1)"></path><path d="M208.6 206.4L228.7 223.6 229.5 230.9 216.1 240.2 209.3 237.1 200.5 212.1C200.3 211.8 200.3 211.8 200.1 211.5 199.7 211 199.1 210.7 198.1 210.9 197.4 211.5 197 212.1 197.3 213.1L205.1 235 194.7 230.1 191.1 220.5C191.1 220.5 190.9 220.2 190.9 220.2 190.6 219.7 190 219.4 189 219.6 188.3 219.7 187.9 220.8 188.1 221.8L190.2 228.1 182.6 224.5C182 224.1 181 224.4 180.4 225.2S180.5 227.1 181.3 227.7L188.8 231.1 182.6 233.4C181.6 233.7 181.2 234.8 181.5 235.8 181.8 236.3 182.7 236.9 183.6 236.6L193.2 233.1 203.8 238.2 181.9 246C181 246.2 180.5 247.3 180.6 248 181.2 248.8 182 249.4 183 249.1L207.8 240.1 214.8 243.4 216.1 259.3 209.8 263.6 183.7 259.2C182.8 259 182 259.5 181.9 260.4S182.2 262.1 183.1 262.3L206.1 266.2 196.4 272.9 186.6 271.2C185.7 271 184.9 271.6 184.5 272.6S184.9 274.3 185.8 274.5L192.7 275.5 185.6 280.4C184.8 281 184.8 282.1 185.4 282.9 185.9 283.7 186.8 283.9 187.6 283.3L194.7 278.4 193.5 285.1C193.1 286.1 193.6 286.9 194.8 286.9 195.7 287.1 196.5 286.5 196.6 285.6L198.4 275.8 208.1 269.1 203.8 292C203.6 292.9 204.3 293.9 205.2 294.1S206.9 293.7 207.1 292.8L211.8 266.5 218.1 262.1 232.7 269.2 233.2 276.6 216 296.7C215.4 297.5 215.7 298.5 216.2 299.3 217 299.9 218 299.6 218.8 299.1L233.7 281.3 234.7 292.7 228 300.5C227.4 301.3 227.6 302.3 228.2 303.1 228.8 303.4 230 303.4 230.6 302.6L234.9 297.6 235.7 306C235.8 306.7 236.6 307.3 237.5 307.5 238.5 307.2 239.1 306.4 239 305.7L238.2 297.3 243.6 301.7C244.2 302 245.4 302 245.7 301.4 246.5 300.8 246.4 300.1 245.9 299.3 245.9 299.3 245.7 299.1 245.7 299.1L237.9 292.4 237 281 254.8 295.9C255.6 296.5 256.5 296.7 257.1 295.9 257.7 295 257.6 294.3 257.2 293.8 257 293.5 257 293.5 257 293.5L236.5 276.3 236 268.8 249.4 259.5 255.9 262.8 265.2 287.9C265.3 288.6 266.4 289 267.1 288.9 268 288.6 268.5 287.6 268.2 286.6L260.4 264.7 270.8 269.6 274.3 279.2C274.6 280.2 275.4 280.8 276.2 280.2 277.2 279.9 277.6 278.9 277.5 278.2L275 271.7 282.6 275.4C283.5 275.6 284.5 275.3 285.1 274.5 285.2 274 285.1 273.3 284.7 272.8 284.5 272.5 284.5 272.5 284.1 272.4L276.5 268.8 282.9 266.3C283.9 266 284 265.1 283.9 264.4 283.7 264.1 283.7 264.1 283.6 263.8 283.2 263.3 282.6 263 281.9 263.1L272.2 266.6 261.9 261.8 283.7 254C284.5 253.4 285.1 252.6 284.6 251.8 284.7 251.4 284.7 251.4 284.5 251.1 284.1 250.6 283.2 250.4 282.5 250.5L257.4 259.8 250.8 256.6 249.4 240.4 255.4 236.2 281.7 241C282.6 241.1 283.6 240.4 283.8 239.5S283.2 237.6 282.3 237.4L259.4 233.5 268.8 226.9 278.9 228.5C279.8 228.7 280.6 228.1 280.7 227.2 280.9 226.3 280.3 225.6 279.5 225.4L272.8 224.2 279.9 219.3C280.4 218.9 280.8 217.8 280.3 217 279.7 216.2 278.4 216 277.9 216.4L270.8 221.3 272 214.6C272.1 214.2 272.1 213.7 272 213.5 271.6 212.9 271.1 212.9 270.7 212.8 269.8 212.6 269 213.2 268.9 214.1L266.8 224 257.4 230.6 261.7 207.7C261.8 207.3 261.6 207 261.3 206.5 261.1 206.2 260.9 205.9 260.4 205.9 259.6 205.7 258.5 206.4 258.3 207.3L253.4 233.3 247.4 237.5 233 230.8 232 223.3 249.5 203C249.8 202.3 250 201.4 249.6 200.9 249.4 200.7 249.4 200.7 249.2 200.8 248.6 200.1 247.5 200.1 246.9 200.9L231.9 218.7 230.8 207 237.5 199.2C237.9 198.6 237.8 197.9 237.4 197.3 237.4 197.3 237.2 197.1 237.2 197.1 236.7 196.3 235.5 196.3 234.9 197.1L230.5 202.5 229.7 194.1C229.8 193.7 229.6 193.4 229.4 193.1 229 192.6 228.4 192.3 228.2 192.5 227 192.5 226.4 193.3 226.2 194.2L227 202.6 222 198.2C221.2 197.6 220.1 197.7 219.5 198.5 219.1 199.1 219.2 200.3 219.8 200.6L227.5 207.3 228.5 218.7 210.7 203.8C209.9 203.2 208.9 203.5 208.1 204 207.8 204.6 207.8 205.8 208.6 206.4ZM219.7 242L229.9 234.8 231.5 233.8 233.2 234.5 244.2 239.7 246.1 240.8 246.2 242.6 247.3 254.8 247.4 256.6 245.8 257.7 235.6 264.8 234 265.9 232.3 265.2 221.3 260 219.6 259.2 219.2 257.1 218.2 244.9 218.1 243.1 219.7 242Z" fill="rgba(214, 239, 199, 1)"></path><path d="M197.9 547.9L171.2 520.3 171.8 506.3 180.7 515.7C181.4 516.9 182.9 516.7 184.2 516 184.8 515.1 184.9 513.4 184.1 512.7L172 499.7 172.1 485.9 183.8 493.2 187.9 510.7C187.9 510.7 188.1 511.1 188.1 511.1 188.5 511.9 189.8 512.3 190.9 512.3 192.2 511.6 192.8 510.7 192.5 509.2L189.5 496.6 201.1 503.9 210.5 541C210.5 541 210.3 541.6 210.3 541.6 210.8 542.5 212.1 542.8 213.1 542.8 214.6 542.5 215.4 541 214.7 539.7L206.8 507.4 221.3 515.8 224.9 530.3C224.9 530.3 224.9 530.3 225.1 530.7 225.6 531.6 226.5 532.2 227.5 532.2 228.8 531.5 229.8 530.3 229.6 528.9L227.1 519.3 237.6 525.5C238.7 526.6 240 525.9 240.6 525 241.6 523.9 241.4 522.4 239.8 521.6L229.7 515.1 239.1 513.2C240.3 512.5 241.4 511.4 240.7 510.2 240.4 508.7 239.5 508.1 238 508.3L223.6 511.9 209.5 503.2 242.3 495.1C243.3 495 244.1 493.5 243.9 492 243.4 491.2 242.3 490.1 240.8 490.4L203.8 499.8 192.1 492.5 204.7 489.4C206.2 489.1 206.5 487.8 206.3 486.3 206.2 485.3 204.7 484.5 203.6 484.5L186.4 489 174.3 482 186.5 475.3 203.5 480.2C204.8 480.6 206 479.9 206.4 478.6 207 477.7 206.1 476 204.8 475.7L192.4 472 204.6 465.4 241.3 476.4C242.6 476.8 243.9 476.1 244.3 474.8 244.7 473.5 244 472.2 242.7 471.9L210.5 462.1 224.8 454.3 239.1 458.5C240.4 458.8 241.7 458.1 242.1 456.8 242.5 455.5 241.8 454.3 240.5 453.9L231.1 450.8 241.6 445C242.9 444.4 243.3 443 242.6 441.8 241.9 440.5 240.6 440.1 239.3 440.8L228.8 446.6 231.5 437.5C231.9 436.2 231.2 434.9 229.9 434.5S227.3 434.8 226.9 436.2L222.9 449.8 208.2 457.9 217.5 426C217.9 424.7 217.2 423.4 215.9 423 214.6 422.7 213.3 423.3 212.9 424.7L202.3 461.1 190.1 467.8 193.7 455.5C194.1 454.2 193.4 452.9 192.1 452.5 190.8 452.1 189.5 452.8 189.1 454.1L184.2 471.1 172.4 477.5 172.8 464.2 185.6 451.7C186.2 450.8 186.4 449.1 185.5 448.5 184.4 447.4 183.3 447.5 182 448.2L172.7 457.1 173.1 443.8 200.6 417.2C201.7 416.1 201.6 415 200.9 413.7 199.8 412.7 198.3 413 197.5 413.4L173 436.7 173.7 419.9 184 409.9C185.3 409.2 185 407.7 184.3 406.4 183.4 405.8 181.7 405.6 180.7 406.8L173.8 413.2 173.8 401.2C174.2 399.9 173.1 398.9 171.4 398.7 170.3 398.8 169.3 399.9 169.3 401L168.9 413.2 162.2 406C161.1 404.9 159.6 405.2 159 406.1 157.7 406.8 157.7 407.8 158.2 408.7 158.4 409.1 158.4 409.1 158.7 409.5L168.7 419.9 168.1 436.7 145 412.6C144.3 411.4 142.8 411.6 141.6 412.3 141 413.2 141 414.3 141.5 415.1 141.7 415.5 141.7 415.5 141.7 415.5L168.1 443.8 167.8 457.1 158.8 447.8C157.7 446.7 156.6 446.8 155.4 447.5 154.8 448.3 154.4 449.6 154.8 450.5 155.1 450.9 155.1 450.9 155.3 451.3L167.8 464.2 167.5 477.5 156 470.6 151.5 453.4C151.2 451.9 149.7 451.1 148.6 451.2 147.4 451.8 146.3 453 147 454.2L150.1 466.8 138.2 460.1 129.1 422.5C129 421.4 127.5 420.6 126.4 420.6 125.2 421.3 124.1 422.4 124.4 423.9L132.3 456.3 118.2 447.6 114.9 433.5C114.6 432 113.1 431.2 111.8 431.9 110.8 432 109.7 433.1 110 434.6L112.5 444.1 102 437.9C101.1 437.3 99.6 437.5 98.5 438.7 98.4 439.3 98.4 440.4 98.9 441.2 98.9 441.2 99.1 441.7 99.3 442.1L109.9 448.3 100.3 450.8C99.2 450.9 98.4 452.4 98.5 453.5 98.7 453.9 98.7 453.9 98.7 453.9 99.4 455.2 100.7 455.6 101.5 455.1L115.6 451.8 130.1 460.2 97.3 468.4C96 469 95.4 469.9 95.7 471.4 95.7 471.4 95.9 471.8 95.9 471.8 96.4 472.7 97.3 473.3 98.8 473L136 464.1 147.5 471 134.9 474C133.6 474.7 132.6 475.8 133.3 477.1 132.9 477.3 133.1 477.7 133.1 477.7 133.6 478.6 134.9 479 135.9 478.9L153.2 474.4 164.8 481.7 153.1 488.1 136.1 483.2C134.8 482.8 133.1 483.8 132.7 485.1 132.8 486.1 133.5 487.4 134.4 488L147.2 491.4 135 498.1 98.5 487.4C97.2 487 95.9 487.7 95.5 489 95.1 490.3 95.8 491.6 97.1 492L129.1 501.3 114.3 509.4 100.7 505.4C99.3 505 98.1 505.7 97.7 507S98 509.6 99.3 510L108.4 512.6 97.9 518.4C96.7 519.1 96.3 520.4 97 521.6 97.7 522.9 99 523.3 100.2 522.6L110.8 516.8 108.3 526.4C108.1 527 107.9 527.7 108.2 528.1 108.4 528.5 109.3 529.1 109.9 529.3 111.2 529.7 112.5 529 112.9 527.7L116.6 513.6 131.4 505.5 122.3 537.9C122.1 538.5 121.9 539.2 122.1 539.6 122.4 540 123.3 540.6 123.9 540.8 125.2 541.2 126.5 540.5 126.9 539.2L137.3 502.3 149.5 495.6 145.4 508.2C145.2 508.9 145.7 509.7 145.9 510.1 146.2 510.5 146.4 511 147.1 511.1 148.4 511.5 150 510.6 150 509.5L155.4 492.4 167.1 485.9 167 499.6 154 511.7C153.3 512.6 153 513.9 153.4 514.8 153.7 515.2 153.7 515.2 154.1 515 154.8 516.2 156.5 516.4 157.5 515.3L166.8 506.3 166.7 520.1 138.5 546.5C137.9 547.4 137.9 548.4 138.4 549.3 138.6 549.7 138.6 549.7 138.6 549.7 139.8 550.7 141.1 551.1 142.1 550L166.6 526.7 165.9 543.5 155.5 553.6C154.5 554.7 154.5 555.8 155 556.6 155 556.6 155.2 557 155.2 557 156.4 558.1 157.8 557.8 158.7 557.3L165.7 550.2 165.3 562.4C165.6 562.9 165.8 563.3 166 563.7 166.3 564.1 167.1 564.7 167.8 564.9 169.3 564.7 170.5 564 170.3 562.5L170.7 550.2 177.4 557.5C178.5 558.5 180 558.2 180.8 557.8 181.9 556.7 181.6 555.2 180.9 553.9L170.8 543.5 171.1 527 194.1 551C195.2 552.1 196.9 552.2 197.6 551.3 198.6 550.2 199 548.9 197.9 547.9Z" fill="rgba(214, 239, 199, 1)"></path><path d="M585.2 572.4L560.3 550.4 558.7 520.9 585.1 534.2 595.2 565.8C595.2 565.8 595.4 566.2 595.4 566.2 595.9 566.8 597 567.1 597.9 567 599.1 566.6 599.7 565.3 599 564.3L590 536.7 602.9 543.2 607 555.3C607 555.3 607.2 555.6 607.2 555.6 607.6 556.3 608.7 556.5 609.6 556.4 610.8 556.1 611.4 554.8 610.7 553.8L608.2 545.4 617.5 550.3C618.3 550.7 619.9 550.2 620.3 549.4 621.1 548.4 620.2 547.1 619.5 546.6L610.1 541.8 618.4 539.2C619.6 538.9 620.2 537.5 619.6 536.5 619.2 535.3 617.9 534.7 616.9 535.4L604.8 539.5 592.3 532.8 619.9 523.9C621.1 523.6 621.7 522.2 621 521.2 620.7 520 619.4 519.5 618.4 520.1L586.8 530.2 560.4 516.9 585.5 500.5 618.2 507.3C619.3 507.6 620.3 506.9 620.5 505.8 620.7 504.7 620.1 503.7 619 503.5L590.2 497.4 602.2 489.6 614.4 492.1C615.5 492.3 616.5 491.7 616.8 490.6 617 489.5 616.3 488.5 615.2 488.2L606.9 486.5 616.3 480.4C617.5 480 617.5 478.6 616.9 477.6 616.2 476.6 615.1 476.4 614.1 477L605.4 482.7 607.1 474.4C607.4 473.3 606.7 472.3 605.6 472.1S603.5 472.5 603.3 473.6L600.7 485.8 588.7 493.6 594.7 464.9C594.9 463.8 594.3 462.7 593.2 462.5 592.1 462.3 591.1 462.9 590.8 464L584 496.7 559.2 512.9 557.6 483.4 579.1 459.3C579.9 458.3 579.6 457.1 578.9 456.1 577.9 455.3 576.7 455.6 575.7 456.3L556.4 477.9 555.7 463.6 564.3 454.1C565.1 453.2 564.8 451.9 564.1 450.9 563.1 450.1 561.9 450.5 561.2 450.9L555.5 457.5 554.8 447C554.7 446.1 553.8 444.7 552.6 445.1 551.4 445.4 550.4 446 550.7 447.3L551.4 457.8 544.8 452.1C543.8 451.3 542.6 451.6 541.9 452.1 541.4 452.8 541.2 453.9 541.7 454.6 541.7 454.6 541.9 454.9 541.9 454.9L551.3 463.6 552.1 477.9 530.4 458.6C529.4 457.8 528.2 458.1 527.5 458.6 527.1 459.4 526.8 460.5 527.3 461.1 527.3 461.1 527.5 461.5 527.5 461.5L552.4 483.4 554 513 527.6 499.6 517.5 468C517.1 466.8 515.8 466.2 514.8 466.9 513.6 467.2 513 468.5 513.7 469.5L522.6 497.1 509.8 490.7 505.7 478.6C505.4 477.3 504.1 476.8 503.1 477.4 501.8 477.8 501.3 479.1 501.9 480.1L504.5 488.4 495.1 483.6C494.3 483.1 492.8 483.7 492.3 484.4 491.9 485.2 492 486.1 492.4 486.8 492.6 487.1 492.9 487.4 493.4 487.6L502.8 492.4 494.5 495C493.2 495.3 492.7 496.6 493.3 497.6 493.3 497.6 493.5 498 493.5 498 494 498.7 495.1 498.9 496 498.8L508.1 494.7 520.9 501.1 493.3 510.1C492.1 510.4 491.5 511.7 492.2 512.7 492.2 512.7 492.4 513.1 492.4 513.1 492.8 513.7 494 514 494.8 513.9L526.4 503.7 552.8 517.1 528.1 533.3 495.4 526.4C494.3 526.2 493.3 526.8 493 527.9 492.8 529 493.5 530 494.6 530.3L523 536.5 511 544.4 498.8 541.9C497.7 541.6 496.7 542.3 496.5 543.4S496.9 545.5 498 545.7L506.3 547.5 497.6 553.2C496.6 553.8 496.3 554.9 497 555.9 497.7 556.9 498.8 557.2 499.8 556.5L508.5 550.8 506.7 559.1C506.6 559.7 506.5 560.2 506.9 560.9S507.9 561.7 508.5 561.8C509.6 562 510.6 561.4 510.8 560.3L513.4 548.1 525.4 540.2 519.4 569C519.3 569.6 519.2 570.1 519.6 570.8 519.8 571.1 520.6 571.6 521.2 571.7 522.3 571.9 523.3 571.3 523.5 570.2L530.3 537.5 555.1 521.3 556.7 550.8 534.8 575.7C534.3 576.5 534.1 577.6 534.5 578.2 534.5 578.2 534.7 578.6 534.7 578.6 535.7 579.4 537 579 537.6 578.6L556.9 556.9 557.7 571.2 549 580.7C548.6 581.5 548.3 582.6 548.8 583.3 548.8 583.3 549 583.6 549 583.6 550 584.4 551.2 584.1 551.9 583.6L557.6 577 558.3 587.6C558.5 587.9 558.4 588.4 558.6 588.8 559 589.5 559.8 589.9 560.7 589.8 561.9 589.5 562.9 588.8 562.6 587.6L561.9 577.1 568.5 582.8C569.5 583.6 570.8 583.2 571.4 582.8 572.2 581.8 571.9 580.6 571.4 579.9L562 571.3 561.2 557 582.9 576.2C583.9 577 585.1 576.7 585.8 576.3 586.1 574.6 586.2 573.2 585.2 572.4Z" fill="rgba(214, 239, 199, 1)"></path><path d="M679.9 270.8L674.8 279.4 671.3 273.7C671 273 670 272.7 669.1 273 668.4 273.7 668.1 274.6 668.4 275.3L672.9 282.9 668.1 291 659.1 275.3C658.5 274.3 657.5 274 656.9 274.7 655.9 275 655.6 275.9 656.3 276.9L666.2 294.2 662.1 301.5 642.6 301.6 638.7 295.2 649.5 276.9C649.5 276.6 649.5 276.3 649.5 275.9 649.5 275.6 649.2 275 648.9 274.7 647.9 274 647 274.4 646.7 275.3L636.8 292 632.3 284 637.1 275.3C637.4 275.3 637.4 275 637.4 274.7 637.4 274.1 637.1 273.4 636.4 273.1 635.8 272.8 634.8 273.1 634.2 273.7L630.4 280.8 624.6 270.9C624.3 270.2 623.3 269.9 622.3 270.2 621.7 270.9 621.4 271.8 621.7 272.5L627.2 281.8 620.4 281.8C619.5 281.8 618.8 282.7 618.8 283.4 618.8 284.3 619.5 285.3 620.4 285.3L629.1 285.3 633.6 293.3 615.7 293.3C614.7 293.3 614.1 293.9 614.1 294.9 614.1 295.9 614.7 296.5 615.7 296.5L635.5 296.5 639.7 303.2 629.8 320.1 622.4 320.2 612.2 302.6C611.8 301.6 610.6 301.3 609.9 301.9 609 302.3 609 303.2 609.3 304.2L618.6 320.2 609.3 320.2 604.8 312.2C604.5 311.6 603.2 311.2 602.6 311.6S601.6 313.2 601.9 314.1L605.5 320.2 594.3 320.2C593.3 320.2 592.7 321.2 592.7 322.1 592.7 322.8 593.3 323.7 594.3 323.7L605.5 323.7 602 330.1C601.7 330.8 601.7 331.7 602.6 332.4 603.3 332.7 604.5 332.4 604.9 331.7L609.3 323.7 618.6 323.7 609.3 339.7C609 340.7 609 341.6 610 342.3 610.6 342.6 611.9 342.3 612.2 341.6L622.4 323.7 629.8 323.7 639.8 340.6 635.6 347.3 615.8 347.4C614.8 347.4 614.2 348 614.2 349 614.2 349.9 614.8 350.9 615.8 350.9L633.7 350.9 629.2 358.9 620.6 358.9C619.6 358.9 619 359.5 619 360.5 619 361.4 619.6 362.1 620.6 362.1L627.3 362.1 621.9 371.4C621.6 372 621.9 373.3 622.5 373.6 623.5 373.9 624.5 373.9 624.8 373L630.5 363.3 634.4 370.1C635 370.7 636 371 636.6 370.7 637.2 370.4 637.6 369.7 637.6 369.1 637.6 369.1 637.6 368.8 637.2 368.5L632.4 359.8 636.9 351.8 646.8 368.4C647.2 369.4 648.1 369.7 649.1 369.1 649.4 368.7 649.7 368.4 649.7 367.8 649.7 367.5 649.7 367.1 649.7 366.8L638.8 348.6 642.6 342.2 662.2 342.2 666.3 349.5 656.4 366.8C655.8 367.8 656.1 368.7 657.1 369.1 657.7 369.7 658.7 369.4 659.3 368.4L668.3 352.7 673.1 360.7 668.6 368.4C668.3 369 668.6 370 669.2 370.6 670.2 370.9 671.2 370.9 671.5 370L675 364.2 680.1 372.9C680.5 373.8 681.4 373.8 682.4 373.5 682.7 373.2 683 372.5 683 371.9 683 371.9 683 371.6 683 371.2L677.6 362 685.6 362C686.2 362 687.2 361.3 687.1 360.4 687.1 359.4 686.2 358.8 685.5 358.8L675.6 358.8 670.8 350.8 690.3 350.8C691.3 350.7 691.9 349.8 691.9 348.8S691.3 347.2 690.3 347.2L668.9 347.3 665 340.6 674.9 323.6 683.2 323.6 693.5 341.5C694.2 342.1 695.1 342.4 696.1 342.1 696.4 341.8 696.7 341.1 696.7 340.5 696.7 340.2 696.7 339.9 696.4 339.5L687.1 323.6 696.4 323.5 701.2 331.5C701.5 332.2 702.5 332.5 703.4 332.2 704.1 331.5 704.4 330.6 704.1 329.9L700.2 323.5 710.4 323.5C711.1 323.5 712 322.5 712 321.9 712 320.9 711.1 320 710.4 320L700.2 320 704 313.9C704 313.6 704 313.3 704 313 704 312.3 703.7 311.7 703.4 311.4 702.4 311 701.5 311.4 700.8 312L696.4 320 687.1 320 696.3 304C697 303.1 696.6 302.1 696 301.8 695 301.1 694.1 301.5 693.4 302.1L683.2 320 674.9 320.1 665 303.1 668.8 296.4 690.2 296.4C691.2 296.3 691.8 295.7 691.8 294.7 691.8 293.8 691.2 293.1 690.2 293.2L670.7 293.2 675.5 285.2 685.4 285.2C686 285.2 687 284.2 687 283.2 687 282.3 686 281.6 685.4 281.6L677.4 281.7 682.8 272.4C682.8 272 682.8 272 682.8 271.7 682.8 271.1 682.5 270.4 682.2 270.1 681.2 269.8 680.3 270.1 679.9 270.8ZM671.1 320.1L672 322 671.1 323.6 663.1 337.4 662.1 339 660.2 339 644.5 339 642.6 339 641.7 337.4 633.6 323.7 632.7 322.1 633.6 320.1 641.6 306.7 642.6 304.8 644.5 304.8 660.2 304.7 662.1 304.7 663 306.6 671.1 320.1Z" fill="rgba(214, 239, 199, 1)"></path></g><defs><mask id="SvgjsMask1012"><rect width="1440" height="560" fill="#ffffff"></rect></mask><filter id="SvgjsFilter1013"><feGaussianBlur stdDeviation="1"></feGaussianBlur></filter></defs></svg>